<svg id="text" xmlns="http://www.w3.org/2000/svg" width="493" height="57.25" viewBox="0 0 1972 229">
  <metadata><?xpacket begin="﻿" id="W5M0MpCehiHzreSzNTczkc9d"?>
<x:xmpmeta xmlns:x="adobe:ns:meta/" x:xmptk="Adobe XMP Core 5.6-c138 79.159824, 2016/09/14-01:09:01        ">
   <rdf:RDF xmlns:rdf="http://www.w3.org/1999/02/22-rdf-syntax-ns#">
      <rdf:Description rdf:about=""/>
   </rdf:RDF>
</x:xmpmeta>
                                                                                                    
                                                                                                    
                                                                                                    
                                                                                                    
                                                                                                    
                                                                                                    
                                                                                                    
                                                                                                    
                                                                                                    
                                                                                                    
                                                                                                    
                                                                                                    
                                                                                                    
                                                                                                    
                                                                                                    
                                                                                                    
                                                                                                    
                                                                                                    
                                                                                                    
                                                                                                    
                           
<?xpacket end="w"?></metadata>
<defs>
    <style>
      .cls-1 {
        fill: #fff;
        fill-rule: evenodd;
      }
    </style>
  </defs>
  <path id="KASCHENKA" class="cls-1" d="M173.129,16.675a9.516,9.516,0,1,1-9.516-9.513A9.514,9.514,0,0,1,173.129,16.675Zm-20.873,3.069A15.194,15.194,0,1,1,137.062,4.555,15.191,15.191,0,0,1,152.256,19.744Zm-34.13-.1a5.305,5.305,0,1,1-5.305-5.3A5.3,5.3,0,0,1,118.126,19.641Zm-9.8-9.568A5.074,5.074,0,1,1,103.25,5,5.073,5.073,0,0,1,108.324,10.073Zm11.531-1.729a4.151,4.151,0,1,1-4.151-4.15A4.151,4.151,0,0,1,119.855,8.343Zm6.573,30.319a5.074,5.074,0,1,1-5.073-5.072A5.072,5.072,0,0,1,126.428,38.662Zm-5.419,13.718a7.957,7.957,0,1,1-7.957-7.954A7.956,7.956,0,0,1,121.009,52.381Zm14.875-12.22a3.69,3.69,0,1,1-3.69-3.689A3.69,3.69,0,0,1,135.884,40.161ZM128.735,48a3.114,3.114,0,1,1-3.114-3.113A3.113,3.113,0,0,1,128.735,48ZM87.4,97.179A13.342,13.342,0,1,1,74.054,83.842,13.339,13.339,0,0,1,87.4,97.179Zm83.986,116.328a8.311,8.311,0,1,1-8.311-8.309A8.31,8.31,0,0,1,171.381,213.507ZM154.1,222.253a6.343,6.343,0,1,1-6.343-6.341A6.342,6.342,0,0,1,154.1,222.253Zm-1.094-19.68a10.061,10.061,0,1,1-10.06-10.057A10.059,10.059,0,0,1,153.009,202.573Zm9.262-4.253a3.937,3.937,0,1,1-3.937-3.936A3.936,3.936,0,0,1,162.271,198.32ZM95.519,110.426a5.163,5.163,0,1,1-5.163-5.162A5.163,5.163,0,0,1,95.519,110.426Zm-11.174,4.782a3.816,3.816,0,1,1-3.816-3.815A3.816,3.816,0,0,1,84.345,115.208Zm8.934,8.085a5.149,5.149,0,1,1-5.149-5.148A5.149,5.149,0,0,1,93.279,123.293Zm8.6-4.231A3.665,3.665,0,1,1,98.21,115.4,3.665,3.665,0,0,1,101.875,119.062Zm14.664,19a3.612,3.612,0,1,1-3.612-3.61A3.611,3.611,0,0,1,116.539,138.066ZM103.8,145.6a3.865,3.865,0,1,1-3.865-3.864A3.865,3.865,0,0,1,103.8,145.6Zm7.729-.7a2.851,2.851,0,1,1-2.851-2.85A2.85,2.85,0,0,1,111.533,144.907Zm-3.611-9.374a4.309,4.309,0,1,1-4.309-4.307A4.308,4.308,0,0,1,107.922,135.533Zm0-9.5a2.915,2.915,0,1,1-2.915-2.914A2.914,2.914,0,0,1,107.922,126.032Zm-7.35,2.787a3.358,3.358,0,1,1-3.358-3.357A3.358,3.358,0,0,1,100.572,128.819ZM97.4,136.99a3.231,3.231,0,1,1-3.231-3.231A3.231,3.231,0,0,1,97.4,136.99ZM49.881,20.617A12.955,12.955,0,1,1,36.926,7.666,12.953,12.953,0,0,1,49.881,20.617Zm12.5,2.56a4.82,4.82,0,1,1-4.821-4.819A4.82,4.82,0,0,1,62.384,23.177Zm-3.013-12.5A4.519,4.519,0,1,1,54.852,6.16,4.518,4.518,0,0,1,59.371,10.677Zm11.148,0.64a4.632,4.632,0,1,1-4.632-4.631A4.632,4.632,0,0,1,70.519,11.317ZM69.765,21.671A2.862,2.862,0,1,1,66.9,18.81,2.862,2.862,0,0,1,69.765,21.671ZM80.31,13.237a3.615,3.615,0,1,1-3.615-3.614A3.615,3.615,0,0,1,80.31,13.237Zm-56.5-2.3a4.056,4.056,0,1,1-4.055-4.054A4.055,4.055,0,0,1,23.807,10.938ZM22.392,22.723a4.433,4.433,0,1,1-4.433-4.431A4.432,4.432,0,0,1,22.392,22.723Zm-8.583-8.58a6.7,6.7,0,1,1-6.7-6.694A6.7,6.7,0,0,1,13.809,14.143Zm135.17,168.764a6.55,6.55,0,1,1-6.549-6.547A6.549,6.549,0,0,1,148.979,182.907Zm-16.01-20.855A12.857,12.857,0,1,1,120.112,149.2,12.855,12.855,0,0,1,132.969,162.052Zm-11.418-17.326a3.087,3.087,0,1,1-3.086-3.085A3.086,3.086,0,0,1,121.551,144.726ZM107.4,154.155a2.744,2.744,0,1,1-2.744-2.743A2.743,2.743,0,0,1,107.4,154.155Zm26.923,35.659a4.287,4.287,0,1,1-4.287-4.286A4.286,4.286,0,0,1,134.327,189.814Zm6.345-19.544a3.6,3.6,0,1,1-3.6-3.6A3.6,3.6,0,0,1,140.672,170.27Zm-6.26,7.458a2.744,2.744,0,1,1-2.743-2.743A2.744,2.744,0,0,1,134.412,177.728Zm-6.773,3.514a4.03,4.03,0,1,1-4.03-4.028A4.029,4.029,0,0,1,127.639,181.242Zm-17.383-115.5a4.185,4.185,0,1,1-4.184-4.183A4.183,4.183,0,0,1,110.256,65.741Zm-5.666-6.972a2.441,2.441,0,1,1-2.441-2.44A2.441,2.441,0,0,1,104.59,58.769Zm-4.185,8.192a3.923,3.923,0,1,1-3.923-3.922A3.922,3.922,0,0,1,100.405,66.961Zm3.313,7.669a2.615,2.615,0,1,1-2.615-2.614A2.615,2.615,0,0,1,103.718,74.631Zm-6.451,7.408a4.795,4.795,0,1,1-4.795-4.793A4.794,4.794,0,0,1,97.267,82.039Zm-6.015-9.587a3.487,3.487,0,1,1-3.487-3.486A3.487,3.487,0,0,1,91.252,72.452ZM85.411,80.3a3.574,3.574,0,1,1-3.574-3.573A3.574,3.574,0,0,1,85.411,80.3ZM75.948,215.921a7.513,7.513,0,1,1-7.513-7.511A7.511,7.511,0,0,1,75.948,215.921Zm-15.39-6.179a7.634,7.634,0,1,1-7.634-7.632A7.633,7.633,0,0,1,60.558,209.742Zm-17.086,7.269a6.059,6.059,0,1,1-6.059-6.058A6.058,6.058,0,0,1,43.472,217.011Zm-20.48-10.055a4.241,4.241,0,1,1-4.241-4.24A4.241,4.241,0,0,1,22.992,206.956Zm-7.028,9.086a8,8,0,1,1-8-8A8,8,0,0,1,15.964,216.042Zm12.481,2.18a5.332,5.332,0,1,1-5.332-5.33A5.331,5.331,0,0,1,28.445,218.222Zm10.3-14.658a5.938,5.938,0,1,1-5.938-5.936A5.936,5.936,0,0,1,38.746,203.564Zm8.361-6.421a3.635,3.635,0,1,1-3.636-3.634A3.635,3.635,0,0,1,47.107,197.143Zm4.12-70.872A11.754,11.754,0,1,1,39.472,114.52,11.753,11.753,0,0,1,51.227,126.271Zm8.967-19.02a5.211,5.211,0,1,1-5.211-5.209A5.21,5.21,0,0,1,60.194,107.251Zm7.392,6.784a4,4,0,1,1-4-4A4,4,0,0,1,67.586,114.035Zm-9.331,4.846a2.908,2.908,0,1,1-2.908-2.908A2.907,2.907,0,0,1,58.255,118.881Zm-9.331,26.653a4.726,4.726,0,1,1-4.726-4.725A4.725,4.725,0,0,1,48.925,145.534Zm-12.36-1.454a4.12,4.12,0,1,1-4.12-4.119A4.12,4.12,0,0,1,36.564,144.08Zm11.148,16.355a9.331,9.331,0,1,1-9.331-9.328A9.329,9.329,0,0,1,47.713,160.435Zm1.452,13.235a3.918,3.918,0,1,1-3.918-3.916A3.918,3.918,0,0,1,49.165,173.67Zm-12.748-.621a3.482,3.482,0,1,1-3.482-3.482A3.482,3.482,0,0,1,36.417,173.049Zm4.788,5.657a2.8,2.8,0,1,1-2.8-2.8A2.8,2.8,0,0,1,41.205,178.706Zm6.467,5.035a3.171,3.171,0,1,1-3.172-3.17A3.171,3.171,0,0,1,47.672,183.741Zm-8.209,6.528a4.415,4.415,0,1,1-4.415-4.414A4.414,4.414,0,0,1,39.464,190.269Zm-5.348-8.455a2.861,2.861,0,1,1-2.861-2.859A2.86,2.86,0,0,1,34.116,181.814Zm14.9-141.671a4.284,4.284,0,1,1-4.284-4.283A4.283,4.283,0,0,1,49.019,40.143ZM38.434,41.235a5.292,5.292,0,1,1-5.292-5.291A5.291,5.291,0,0,1,38.434,41.235Zm9.576,11.085a5.964,5.964,0,1,1-5.964-5.962A5.963,5.963,0,0,1,48.011,52.321ZM34.738,55.764a3.276,3.276,0,1,1-3.276-3.275A3.276,3.276,0,0,1,34.738,55.764Zm13.188,8.314A3.024,3.024,0,1,1,44.9,61.055,3.024,3.024,0,0,1,47.927,64.078Zm-8.064-1.092a3.528,3.528,0,1,1-3.528-3.527A3.528,3.528,0,0,1,39.862,62.986ZM33.73,70.293a3.36,3.36,0,1,1-3.36-3.359A3.36,3.36,0,0,1,33.73,70.293Zm7.056,3.779a3.108,3.108,0,1,1-3.108-3.107A3.108,3.108,0,0,1,40.786,74.072Zm7.476-2.184a3.276,3.276,0,1,1-3.276-3.275A3.276,3.276,0,0,1,48.263,71.888Zm-1.008,33.257a5.88,5.88,0,1,1-5.88-5.878A5.879,5.879,0,0,1,47.255,105.145Zm-13.1,3.191a3.192,3.192,0,1,1-3.192-3.191A3.191,3.191,0,0,1,34.15,108.336Zm3.612-12.513a4.62,4.62,0,1,1-4.62-4.618A4.62,4.62,0,0,1,37.762,95.823Zm4.956-6.97A2.856,2.856,0,1,1,39.862,86,2.856,2.856,0,0,1,42.719,88.852Zm4.2,5.627a2.94,2.94,0,1,1-2.94-2.939A2.94,2.94,0,0,1,46.919,94.479Zm0.5-12.933a3.192,3.192,0,1,1-3.192-3.191A3.191,3.191,0,0,1,47.423,81.546Zm-10,.672a4.2,4.2,0,1,1-4.2-4.2A4.2,4.2,0,0,1,37.426,82.218ZM1924.91,152.26a14.735,14.735,0,1,1-14.73-14.735A14.729,14.729,0,0,1,1924.91,152.26Zm-85.62-1.593a15.535,15.535,0,1,1-15.53-15.531A15.528,15.528,0,0,1,1839.29,150.667Zm43.35-133.021a15.56,15.56,0,1,1-15.56-15.558A15.555,15.555,0,0,1,1882.64,17.646Zm23.95,110.716a5.69,5.69,0,1,1-5.69-5.684A5.689,5.689,0,0,1,1906.59,128.362Zm13.28,0.333a5.2,5.2,0,1,1-5.2-5.2A5.2,5.2,0,0,1,1919.87,128.7ZM1888.28,32.64a4.645,4.645,0,1,1-4.64-4.645A4.644,4.644,0,0,1,1888.28,32.64Zm-8.36,9.475a5.205,5.205,0,1,1-5.2-5.2A5.2,5.2,0,0,1,1879.92,42.115Zm12.64,5.016a5.39,5.39,0,1,1-5.39-5.388A5.393,5.393,0,0,1,1892.56,47.131Zm-9.3,8.732a4.645,4.645,0,1,1-4.64-4.645A4.644,4.644,0,0,1,1883.26,55.864Zm14.5,8.547a7.805,7.805,0,1,1-7.81-7.8A7.809,7.809,0,0,1,1897.76,64.41Zm-4.83,15.235a4.09,4.09,0,1,1-4.09-4.087A4.088,4.088,0,0,1,1892.93,79.645Zm10.03-.558a3.53,3.53,0,1,1-3.53-3.53A3.53,3.53,0,0,1,1902.96,79.088Zm-2.04,11.705a5.02,5.02,0,1,1-5.02-5.016A5.019,5.019,0,0,1,1900.92,90.793Zm7.8,6.317a3.9,3.9,0,1,1-3.9-3.9A3.9,3.9,0,0,1,1908.72,97.11Zm-7.99,6.688a4.645,4.645,0,1,1-4.64-4.644A4.644,4.644,0,0,1,1900.73,103.8Zm13.38,10.405a6.69,6.69,0,1,1-6.69-6.688A6.685,6.685,0,0,1,1914.11,114.2ZM1864.31,41a7.805,7.805,0,1,1-7.81-7.8A7.809,7.809,0,0,1,1864.31,41Zm29.73,119.465a4.645,4.645,0,1,1-4.64-4.644A4.644,4.644,0,0,1,1894.04,160.465Zm-15.24-7.9a0.351,0.351,0,1,1-.18-0.65A0.735,0.735,0,0,1,1878.8,152.569Zm4.46-.093a4.83,4.83,0,1,1-4.83-4.83A4.828,4.828,0,0,1,1883.26,152.476Zm8.37-3.158a2.79,2.79,0,1,1-2.79-2.787A2.788,2.788,0,0,1,1891.63,149.318Zm-29.37,7.246a8.175,8.175,0,1,1-8.17-8.175A8.174,8.174,0,0,1,1862.26,156.564Zm-17.47,4.984a2.8,2.8,0,1,1-2.8-2.791A2.794,2.794,0,0,1,1844.79,161.548Zm33.79,0.559a3.77,3.77,0,1,1-3.77-3.769A3.771,3.771,0,0,1,1878.58,162.107Zm-6.57-9.492a4.465,4.465,0,1,1-4.46-4.467A4.466,4.466,0,0,1,1872.01,152.615Zm-34.07-23.591a4.465,4.465,0,1,1-4.46-4.468A4.465,4.465,0,0,1,1837.94,129.024Zm-10.89-1.676A4.05,4.05,0,1,1,1823,123.3,4.048,4.048,0,0,1,1827.05,127.348ZM1856.79,62.3a6.28,6.28,0,1,1-6.28-6.282A6.28,6.28,0,0,1,1856.79,62.3ZM1848,81.143a4.33,4.33,0,1,1-4.33-4.327A4.329,4.329,0,0,1,1848,81.143Zm-2.1,13.68a7.12,7.12,0,1,1-7.12-7.119A7.121,7.121,0,0,1,1845.9,94.824Zm-6.79,22.889a4.27,4.27,0,1,1-4.27-4.269A4.268,4.268,0,0,1,1839.11,117.713Zm3.12-10.5a3.925,3.925,0,1,1-3.92-3.923A3.924,3.924,0,0,1,1842.23,107.215Zm-9.92,1.269a4.62,4.62,0,1,1-4.62-4.615A4.618,4.618,0,0,1,1832.31,108.484Zm-3.7,9.113a3.23,3.23,0,1,1-3.23-3.23A3.226,3.226,0,0,1,1828.61,117.6Zm24.12-43.722a3.575,3.575,0,1,1-3.58-3.577A3.576,3.576,0,0,1,1852.73,73.875Zm-7.38-3.577a3.35,3.35,0,1,1-3.35-3.345A3.348,3.348,0,0,1,1845.35,70.3Zm4.61-18.92a3.23,3.23,0,1,1-3.23-3.23A3.226,3.226,0,0,1,1849.96,51.378Zm10.85,2.538a2.54,2.54,0,1,1-2.54-2.538A2.541,2.541,0,0,1,1860.81,53.916Zm84.26,154.652a9.96,9.96,0,1,1-9.96-9.955A9.958,9.958,0,0,1,1945.07,208.568Zm8.2,9.772a4.02,4.02,0,1,1-4.02-4.021A4.02,4.02,0,0,1,1953.27,218.34Zm2.33-9.3a4.275,4.275,0,1,1-4.28-4.273A4.278,4.278,0,0,1,1955.6,209.041Zm5.4,8.042a3.015,3.015,0,1,1-3.01-3.015A3.014,3.014,0,0,1,1961,217.083Zm-36.83.189a4.21,4.21,0,1,1-4.21-4.21A4.207,4.207,0,0,1,1924.17,217.272Zm-3.39-10.43a4.525,4.525,0,1,1-4.52-4.524A4.526,4.526,0,0,1,1920.78,206.842Zm-9.11,7.728a4.4,4.4,0,1,1-4.4-4.4A4.4,4.4,0,0,1,1911.67,214.57Zm17.91-48.316a3.96,3.96,0,1,1-3.96-3.959A3.957,3.957,0,0,1,1929.58,166.254Zm-9.68,6.6a3.52,3.52,0,1,1-3.52-3.519A3.522,3.522,0,0,1,1919.9,172.851Zm14.27,5.843a5.97,5.97,0,1,1-5.97-5.969A5.974,5.974,0,0,1,1934.17,178.694Zm-12.26,5.78a3.4,3.4,0,1,1-3.39-3.392A3.393,3.393,0,0,1,1921.91,184.474Zm15.3,7.068a4.82,4.82,0,1,1-4.82-4.819A4.82,4.82,0,0,1,1937.21,191.542Zm-10.06,3.561a3.56,3.56,0,1,1-3.56-3.561A3.559,3.559,0,0,1,1927.15,195.1ZM1816.9,208.861a8.64,8.64,0,1,1-8.64-8.638A8.64,8.64,0,0,1,1816.9,208.861Zm9.64,9.137a4.655,4.655,0,1,1-4.65-4.651A4.65,4.65,0,0,1,1826.54,218Zm0.08-10.3a3.655,3.655,0,1,1-3.66-3.654A3.659,3.659,0,0,1,1826.62,207.693Zm7.89,11.45a3.25,3.25,0,1,1-3.25-3.252A3.248,3.248,0,0,1,1834.51,219.143ZM1794.77,202.8a6.15,6.15,0,1,1-6.15-6.147A6.152,6.152,0,0,1,1794.77,202.8Zm3.69,11.214a4.32,4.32,0,1,1-4.32-4.319A4.324,4.324,0,0,1,1798.46,214.011Zm24.09-39.871a5.65,5.65,0,1,1-5.65-5.648A5.649,5.649,0,0,1,1822.55,174.14Zm-11.3-8.306a2.66,2.66,0,1,1-2.66-2.658A2.658,2.658,0,0,1,1811.25,165.834Zm6.48,21.264a7.145,7.145,0,1,1-7.14-7.143A7.144,7.144,0,0,1,1817.73,187.1Zm-12.02,9.358a4.32,4.32,0,1,1-4.32-4.319A4.317,4.317,0,0,1,1805.71,196.456Zm-20.53,17.885a8.8,8.8,0,0,1-8.81,8.8c-4.86,0-8.24-3.94-8.24-8.8s3.38-8.8,8.24-8.8A8.8,8.8,0,0,1,1785.18,214.341Zm54.17-4.008a4.65,4.65,0,1,1-4.65-4.648A4.648,4.648,0,0,1,1839.35,210.333Zm125.03-.207a3,3,0,1,1-2.99-3A2.994,2.994,0,0,1,1964.38,210.126Zm7.44,8.057a4.65,4.65,0,1,1-4.65-4.648A4.649,4.649,0,0,1,1971.82,218.183Zm-70.57.413a4.235,4.235,0,1,1-4.24-4.235A4.239,4.239,0,0,1,1901.25,218.6ZM398.339,203.56v16.871H381.462V203.56h16.877Zm-46.82,7.075v14.752H338.726V210.635h12.793Zm14.972-5.17v11.157H355.33V205.465h11.161Zm12.521,5.986V220.7h-9.255v-9.253h9.255ZM378.2,198.934v7.891H370.3v-7.891H378.2Zm-9.527-14.695v11.429H357.236V184.239h11.433Zm7.621,4.082v5.442h-5.444v-5.442h5.444Zm-11.456-41.363v16.056H348.773V146.958h16.061ZM321.305,2.734V30.762H293.267V2.734h28.038ZM273.4,209v12.246H261.147V209H273.4Zm-45.186-.816v12.79H215.416v-12.79H228.21ZM258.7,209V221.52H246.176V209H258.7Zm-16.332-1.088V218.8H231.476V207.914h10.889Zm9.255-21.5v16.327H235.287V186.416H251.62Zm14.736-41.09v17.688H248.663V145.326h17.693Zm13.481,5.987V162.2H268.948V151.313h10.889Zm9.649-3.538v7.619h-7.622v-7.619h7.622Zm-0.816,9.252v6.8h-6.806v-6.8h6.806Zm17.856-9.8V162.2H291.554V147.231h14.972Zm7.817-.389v5.17h-5.172v-5.17h5.172Zm3.539,6.209v3.385H314.5v-3.385h3.386Zm-4.7,5.415v4.626h-4.628v-4.626h4.628Zm7.311-.623v4.9h-4.9v-4.9h4.9Zm7.622-10.068v8.615h-8.618v-8.615h8.618Zm0,9.8v5.715h-5.717v-5.715h5.717Zm10.846-2.177v8.164H330.79v-8.164h8.166Zm-0.83-7.878v6.5H331.62v-6.5h6.506Zm8.315-.013v4.626h-4.628V147.5h4.628Zm-0.273,8.436v4.626h-4.627v-4.626h4.627Zm-82.027,9.8v9.524h-9.527v-9.524h9.527Zm-11.705-.272v6.531H245.9v-6.531h6.533Zm0,8.436v9.252h-9.255V173.9h9.255Zm6.533,5.442v5.17H253.8v-5.17h5.172Zm112.422-7.891v11.156H360.23V171.45h11.161Zm-13.611-5.171v8.164h-8.166v-8.164h8.166Zm1.361,10.069v4.626h-4.627v-4.626h4.627Zm-1.633-51.159v19.048H338.454V125.189h19.054ZM328.382,36.477v14.15H314.227V36.477h14.155Zm7.077,17.96V65.866H324.027V54.437h11.432Zm-13.066-.544v8.164h-8.166V53.893h8.166Zm16.061,14.15V78.656H327.838V68.043h10.616Zm-12.794.544v5.987h-5.989V68.588h5.989Zm3.266,11.973V86h-5.444V80.561h5.444Zm8.439,7.075v6.8H330.56v-6.8h6.805Zm10.888,9.8v13.062H335.187V97.432h13.066ZM336.276,80.561V86h-5.444V80.561h5.444ZM343.353,90.9v3.81h-3.811V90.9h3.811Zm7.35,20.953v7.075h-7.077v-7.075H350.7Zm-8.439,4.082v5.986h-5.988v-5.986h5.988Zm8.914,4.477v3.88H347.3v-3.88h3.882ZM261.419,133.08v7.347H254.07V133.08h7.349Zm11.433,0.544v7.62H265.23v-7.62h7.622Zm-1.633-11.7v8.708h-8.711v-8.708h8.711Zm-10.889,2.449v5.171h-5.172v-5.171h5.172Zm18.783-22.314V120.29H260.875V102.058h18.238Zm-3-11.156v5.442h-5.444V90.9h5.444Zm10.889-1.361V97.7H278.84V89.541h8.167ZM280.2,75.663v8.98h-8.982v-8.98H280.2Zm7.894,6.259v4.9h-4.9v-4.9h4.9ZM291.362,67.5v8.708h-8.711V67.5h8.711ZM281.29,66.138v5.987H275.3V66.138h5.988Zm22.593-31.294v9.524h-9.527V34.844h9.527Zm-11.977,2.993v6.8H285.1v-6.8h6.805Zm7.622,10.069v6.8h-6.805v-6.8h6.805Zm-8.983.544V61.24H277.752V48.45h12.793ZM790.187,6.71A6.473,6.473,0,1,1,783.714.239,6.472,6.472,0,0,1,790.187,6.71Zm-6.123,16.441a9.972,9.972,0,1,1-9.972-9.969A9.971,9.971,0,0,1,784.064,23.151Zm8.812-4.494a3.418,3.418,0,1,1-3.418-3.417A3.417,3.417,0,0,1,792.876,18.656Zm0.526,36.53a5.127,5.127,0,1,1-5.127-5.125A5.126,5.126,0,0,1,793.4,55.186Zm-7.361-10.512a5.39,5.39,0,1,1-5.39-5.388A5.389,5.389,0,0,1,786.041,44.674Zm7.755-10.38a5.652,5.652,0,1,1-5.652-5.651A5.652,5.652,0,0,1,793.8,34.293ZM763.056,14.31a8.587,8.587,0,1,1-8.587-8.585A8.585,8.585,0,0,1,763.056,14.31Zm7.951-4.929a3.34,3.34,0,1,1-3.339-3.338A3.339,3.339,0,0,1,771.007,9.381Zm6.478,194.635a4.739,4.739,0,1,1-4.739-4.737A4.738,4.738,0,0,1,777.485,204.016Zm-9.951,7.263a4.9,4.9,0,1,1-4.9-4.9A4.9,4.9,0,0,1,767.534,211.279Zm-9.476-5.842a4.581,4.581,0,1,1-4.581-4.579A4.58,4.58,0,0,1,758.058,205.437Zm-8.372,8.526a7.739,7.739,0,1,1-7.739-7.736A7.737,7.737,0,0,1,749.686,213.963ZM733.892,206.7a4.739,4.739,0,1,1-4.738-4.737A4.737,4.737,0,0,1,733.892,206.7Zm-3.863,10.736a4.422,4.422,0,1,1-4.422-4.42A4.421,4.421,0,0,1,730.029,217.436Zm-8.742-6.789a8.687,8.687,0,1,1-8.687-8.684A8.687,8.687,0,0,1,721.287,210.647ZM744.234,7.963a6.526,6.526,0,1,1-6.526-6.524A6.525,6.525,0,0,1,744.234,7.963Zm-17.512,6.524a5.656,5.656,0,1,1-5.656-5.654A5.655,5.655,0,0,1,726.722,14.488Zm2.828-9.9A3.59,3.59,0,1,1,725.961,1,3.589,3.589,0,0,1,729.55,4.593Zm-13.3,1.431A5.123,5.123,0,1,1,711.125.9,5.121,5.121,0,0,1,716.247,6.024Zm-4.063,11.3a3.709,3.709,0,1,1-3.709-3.708A3.708,3.708,0,0,1,712.184,17.325Zm-42.921,30.2A11.834,11.834,0,1,1,657.429,35.69,11.832,11.832,0,0,1,669.263,47.52Zm-8.655,37.788a15.72,15.72,0,1,1-15.72-15.715A15.718,15.718,0,0,1,660.608,85.308Zm0.66-18.506a4.219,4.219,0,1,1-4.219-4.217A4.218,4.218,0,0,1,661.268,66.8ZM656.543,109.4a5.653,5.653,0,1,1-5.653-5.651A5.652,5.652,0,0,1,656.543,109.4Zm-13.583-1.181a5.231,5.231,0,1,1-5.231-5.229A5.231,5.231,0,0,1,642.96,108.216Zm10.883,15.941a7.931,7.931,0,1,1-7.931-7.928A7.929,7.929,0,0,1,653.843,124.157Zm2.784,12.989a3.459,3.459,0,1,1-3.459-3.458A3.458,3.458,0,0,1,656.627,137.146Zm-10.461,3.374a5.147,5.147,0,1,1-5.147-5.145A5.146,5.146,0,0,1,646.166,140.52ZM658.315,152.5a6.919,6.919,0,1,1-6.919-6.916A6.917,6.917,0,0,1,658.315,152.5Zm-6.328,13.327a5.062,5.062,0,1,1-5.062-5.061A5.061,5.061,0,0,1,651.987,165.824Zm11.9,0.084a4.978,4.978,0,1,1-4.978-4.976A4.977,4.977,0,0,1,663.883,165.908ZM702.142,13.986a8.48,8.48,0,1,1-8.48-8.477A8.478,8.478,0,0,1,702.142,13.986ZM678.6,36.226a4.29,4.29,0,1,1-4.289-4.288A4.288,4.288,0,0,1,678.6,36.226Zm-8.453-5.55a3.659,3.659,0,1,1-3.658-3.657A3.658,3.658,0,0,1,670.146,30.676Zm14.509-6.181a5.8,5.8,0,1,1-5.8-5.8A5.8,5.8,0,0,1,684.655,24.495Zm16.159,190.084a4.58,4.58,0,1,1-4.58-4.578A4.579,4.579,0,0,1,700.814,214.579Zm0.764-10.429a4.072,4.072,0,1,1-4.072-4.07A4.071,4.071,0,0,1,701.578,204.15Zm-11.2,1.653a8.4,8.4,0,1,1-8.4-8.394A8.395,8.395,0,0,1,690.382,205.8Zm-10.941-16.026a5.343,5.343,0,1,1-5.343-5.341A5.343,5.343,0,0,1,679.441,189.777Zm-6.742,10.3a4.072,4.072,0,1,1-4.071-4.07A4.071,4.071,0,0,1,672.7,200.08Zm-5.914-10.624a5.257,5.257,0,1,1-5.257-5.256A5.257,5.257,0,0,1,666.785,189.456Zm2.629-11.352a4.627,4.627,0,1,1-4.627-4.625A4.626,4.626,0,0,1,669.414,178.1Zm-11.566-.526a4.627,4.627,0,1,1-4.626-4.624A4.625,4.625,0,0,1,657.848,177.578ZM476.1,33.742a10.87,10.87,0,1,1-10.87-10.866A10.868,10.868,0,0,1,476.1,33.742ZM577.606,11.069a8.616,8.616,0,1,1-8.616-8.613A8.614,8.614,0,0,1,577.606,11.069Zm1.337,45.89A5.942,5.942,0,1,1,573,51.019,5.941,5.941,0,0,1,578.943,56.959ZM578.2,33.94A11.141,11.141,0,1,1,567.059,22.8,11.139,11.139,0,0,1,578.2,33.94ZM557.7,15.525a9.8,9.8,0,1,1-9.8-9.8A9.8,9.8,0,0,1,557.7,15.525ZM535.716,9.881a9.21,9.21,0,1,1-9.21-9.207A9.208,9.208,0,0,1,535.716,9.881Zm-20.945,4.307A5.794,5.794,0,1,1,508.978,8.4,5.792,5.792,0,0,1,514.771,14.188ZM502.739,5.871A6.239,6.239,0,1,1,496.5-.366,6.239,6.239,0,0,1,502.739,5.871Zm-8.764,13.811a5.645,5.645,0,1,1-5.645-5.643A5.644,5.644,0,0,1,493.975,19.683Zm-13.964-3.267a5.348,5.348,0,1,1-5.347-5.346A5.346,5.346,0,0,1,480.011,16.416Zm-21.539,30.89a5.348,5.348,0,1,1-5.347-5.346A5.346,5.346,0,0,1,458.472,47.306Zm9.953,8.762a4.9,4.9,0,1,1-4.9-4.9A4.9,4.9,0,0,1,468.425,56.068Zm-8.467,10.693a5.942,5.942,0,1,1-5.942-5.94A5.941,5.941,0,0,1,459.958,66.761Zm11.883,7.129a5.2,5.2,0,1,1-5.2-5.2A5.2,5.2,0,0,1,471.841,73.889Zm-8.021,9.653a5.942,5.942,0,1,1-5.942-5.94A5.941,5.941,0,0,1,463.82,83.542Zm13.872,118.791a12.655,12.655,0,1,1-12.654-12.651A12.652,12.652,0,0,1,477.692,202.333Zm-22.937,14.033a6.327,6.327,0,1,1-6.326-6.325A6.325,6.325,0,0,1,454.755,216.366ZM456.14,154.7a4.548,4.548,0,1,1-4.548-4.547A4.547,4.547,0,0,1,456.14,154.7Zm-6.223,9.372a3.885,3.885,0,1,1-3.885-3.884A3.885,3.885,0,0,1,449.917,164.072Zm9.941,3.542a4.342,4.342,0,1,1-4.342-4.341A4.341,4.341,0,0,1,459.858,167.614Zm3.429,13.822a6.171,6.171,0,1,1-6.171-6.168A6.17,6.17,0,0,1,463.287,181.436ZM449.8,175.268a4.685,4.685,0,1,1-4.685-4.684A4.685,4.685,0,0,1,449.8,175.268Zm3.085,15.65a5.714,5.714,0,1,1-5.714-5.712A5.713,5.713,0,0,1,452.888,190.918ZM560.8,120.346a11.615,11.615,0,1,1-11.615-11.611A11.613,11.613,0,0,1,560.8,120.346Zm13.273,5.253a5.531,5.531,0,1,1-5.53-5.529A5.53,5.53,0,0,1,574.076,125.6Zm-8.019,9.952a4.425,4.425,0,1,1-4.425-4.423A4.424,4.424,0,0,1,566.057,135.551Zm20.049,20.734a11.477,11.477,0,1,1-11.476-11.473A11.475,11.475,0,0,1,586.106,156.285Zm-4.978-18.661a5.393,5.393,0,1,1-5.392-5.39A5.391,5.391,0,0,1,581.128,137.624Zm-14.241,62.755a6.222,6.222,0,1,1-6.222-6.22A6.221,6.221,0,0,1,566.887,200.379Zm2.35-14.237a5.254,5.254,0,1,1-5.254-5.253A5.253,5.253,0,0,1,569.237,186.142ZM584,176.475a5.838,5.838,0,1,1-5.838-5.837A5.837,5.837,0,0,1,584,176.475Zm-12.792-3.6a3.606,3.606,0,1,1-3.606-3.605A3.605,3.605,0,0,1,571.207,172.87Zm6.1,18.453a3.349,3.349,0,1,1-3.349-3.348A3.348,3.348,0,0,1,577.3,191.323ZM493.978,206.6a6.7,6.7,0,1,1-6.7-6.694A6.7,6.7,0,0,1,493.978,206.6Zm-10.905,8.274a3.747,3.747,0,1,1-3.747-3.745A3.746,3.746,0,0,1,483.073,214.872Zm21.541,2.715a4.4,4.4,0,1,1-4.4-4.4A4.4,4.4,0,0,1,504.614,217.587Zm-2.154-10.2a2.9,2.9,0,1,1-2.9-2.9A2.9,2.9,0,0,1,502.46,207.382Zm-8.617,9.924a2.623,2.623,0,1,1-2.622-2.622A2.622,2.622,0,0,1,493.843,217.306Zm28.472-6.086a8.71,8.71,0,1,1-8.71-8.707A8.709,8.709,0,0,1,522.315,211.22Zm28.94-10.58a4.215,4.215,0,1,1-4.215-4.213A4.215,4.215,0,0,1,551.255,200.64Zm-1.031,11.423a3.746,3.746,0,1,1-3.746-3.745A3.746,3.746,0,0,1,550.224,212.063Zm7.025-1.873a2.9,2.9,0,1,1-2.9-2.9A2.9,2.9,0,0,1,557.249,210.19Zm-14.8-3.464a5.058,5.058,0,1,1-5.058-5.056A5.057,5.057,0,0,1,542.451,206.726Zm-8.8,8.052A4.777,4.777,0,1,1,528.871,210,4.775,4.775,0,0,1,533.647,214.778Zm-4.308-8.988a3,3,0,1,1-3-3A3,3,0,0,1,529.339,205.79Zm12.737,10.58a2.9,2.9,0,1,1-2.9-2.9A2.9,2.9,0,0,1,542.076,216.37Zm-4.73-108.621a5.226,5.226,0,1,1-5.226-5.224A5.225,5.225,0,0,1,537.346,107.749Zm-2.78,10.228a2.891,2.891,0,1,1-2.891-2.891A2.89,2.89,0,0,1,534.566,117.977Zm-10.23-6.114a7.006,7.006,0,1,1-7.006-7A7,7,0,0,1,524.336,111.863ZM510.658,99.19a6.783,6.783,0,1,1-6.783-6.781A6.782,6.782,0,0,1,510.658,99.19ZM475.3,84.85a4.559,4.559,0,1,1-4.559-4.558A4.558,4.558,0,0,1,475.3,84.85Zm6.895,9.671a5,5,0,1,1-5-5A5,5,0,0,1,482.191,94.521Zm13.121,10.449a6.227,6.227,0,1,1-6.227-6.225A6.226,6.226,0,0,1,495.312,104.97ZM491.56,92.337a2.652,2.652,0,1,1-2.652-2.651A2.651,2.651,0,0,1,491.56,92.337Zm-21.128,2.138a3.165,3.165,0,1,1-3.165-3.164A3.164,3.164,0,0,1,470.432,94.475Zm21.812-2.052a3.507,3.507,0,1,1-3.507-3.506A3.506,3.506,0,0,1,492.244,92.423ZM1127.03,19.1a11.535,11.535,0,1,1-11.54-11.528A11.536,11.536,0,0,1,1127.03,19.1Zm-25.08-7.828a7.42,7.42,0,1,1-7.42-7.415A7.416,7.416,0,0,1,1101.95,11.269Zm22.4,24.643a3.7,3.7,0,0,1-1.46,0A3.706,3.706,0,0,1,1124.35,35.912Zm3.63,0.218a5.09,5.09,0,1,1-5.09-5.089A5.09,5.09,0,0,1,1127.98,36.13Zm-11.78,1.018a3.345,3.345,0,1,1-3.34-3.344A3.345,3.345,0,0,1,1116.2,37.147Zm13.09,66.733a10.47,10.47,0,1,1-10.47-10.468A10.471,10.471,0,0,1,1129.29,103.88Zm0.15-20.936a5.675,5.675,0,1,1-5.68-5.67A5.673,5.673,0,0,1,1129.44,82.944Zm-13.97,2.181a3.925,3.925,0,1,1-3.92-3.925A3.919,3.919,0,0,1,1115.47,85.125Zm12.22-32.13a9.455,9.455,0,1,1-9.45-9.45A9.45,9.45,0,0,1,1127.69,52.995Zm1.95,16.827a5.285,5.285,0,1,1-5.28-5.287A5.281,5.281,0,0,1,1129.64,69.822Zm-11.89,2.237a3.46,3.46,0,1,1-3.46-3.457A3.459,3.459,0,0,1,1117.75,72.058Zm117.07-59.5a6.12,6.12,0,1,1-6.12-6.117A6.118,6.118,0,0,1,1234.82,12.555Zm-13.3,7.411a4.94,4.94,0,1,1-4.94-4.94A4.939,4.939,0,0,1,1221.52,19.966Zm13.18,5.176a4.94,4.94,0,1,1-4.94-4.94A4.939,4.939,0,0,1,1234.7,25.142Zm-10.71,5.647a4.235,4.235,0,1,1-4.23-4.235A4.23,4.23,0,0,1,1223.99,30.788Zm12.59,24.7a6.47,6.47,0,1,1-6.47-6.47A6.472,6.472,0,0,1,1236.58,55.491Zm-0.37-13.158a4.01,4.01,0,1,1-4.01-4.01A4.007,4.007,0,0,1,1236.21,42.333Zm-10.7,2.228a3.12,3.12,0,1,1-3.12-3.119A3.115,3.115,0,0,1,1225.51,44.561Zm9.9-10.516a2.94,2.94,0,1,1-2.94-2.941A2.943,2.943,0,0,1,1235.41,34.045Zm-7.22,2.941a2.855,2.855,0,1,1-2.85-2.851A2.853,2.853,0,0,1,1228.19,36.986Zm-7.93-28.117a4.375,4.375,0,1,1-4.37-4.369A4.372,4.372,0,0,1,1220.26,8.869ZM1210,14.093a7.605,7.605,0,1,1-7.61-7.6A7.606,7.606,0,0,1,1210,14.093Zm-17,4.719a3.44,3.44,0,1,1-3.44-3.44A3.44,3.44,0,0,1,1193,18.812Zm0.29-8.5a3.44,3.44,0,1,1-3.44-3.44A3.44,3.44,0,0,1,1193.29,10.309Zm-9.44,7.077a5.16,5.16,0,1,1-5.16-5.16A5.16,5.16,0,0,1,1183.85,17.387Zm-9.39-6a3.2,3.2,0,1,1-3.19-3.195A3.194,3.194,0,0,1,1174.46,11.39Zm-3.54,7.373a3,3,0,1,1-3-3A3,3,0,0,1,1170.92,18.763Zm-6.04-6.488A4.475,4.475,0,1,1,1160.4,7.8,4.479,4.479,0,0,1,1164.88,12.275Zm-5.56,7.667a2.46,2.46,0,1,1-2.46-2.458A2.458,2.458,0,0,1,1159.32,19.943Zm26-9.663a2.025,2.025,0,1,1-2.03-2.025A2.028,2.028,0,0,1,1185.32,10.28Zm-30.33,4.572a3.74,3.74,0,1,1-3.74-3.737A3.736,3.736,0,0,1,1154.99,14.852Zm-7.76,4.716a3.125,3.125,0,1,1-3.13-3.123A3.126,3.126,0,0,1,1147.23,19.568Zm-1.65-9.508a3.47,3.47,0,1,1-3.47-3.467A3.466,3.466,0,0,1,1145.58,10.06Zm9.89-1.854a1.82,1.82,0,1,1-1.82-1.819A1.823,1.823,0,0,1,1155.47,8.206Zm-5.74.858a1.51,1.51,0,1,1-1.51-1.51A1.506,1.506,0,0,1,1149.73,9.065Zm-11.46,9.714a4.43,4.43,0,1,1-4.43-4.428A4.433,4.433,0,0,1,1138.27,18.778Zm-4.84-8.959a3.4,3.4,0,1,1-3.4-3.4A3.4,3.4,0,0,1,1133.43,9.82ZM1218.83,107a11.255,11.255,0,1,1-11.26-11.25A11.254,11.254,0,0,1,1218.83,107Zm-76.43,3.791a5.125,5.125,0,1,1-5.12-5.122A5.12,5.12,0,0,1,1142.4,110.788Zm9.23-7.991a4.92,4.92,0,1,1-4.92-4.918A4.924,4.924,0,0,1,1151.63,102.8Zm3.58,10.143a3.89,3.89,0,1,1-3.89-3.893A3.89,3.89,0,0,1,1155.21,112.94Zm9.84-7.889a4.92,4.92,0,1,1-4.92-4.918A4.917,4.917,0,0,1,1165.05,105.051Zm9.84,7.172a4.815,4.815,0,1,1-4.82-4.816A4.813,4.813,0,0,1,1174.89,112.223Zm3.49-9.529a3.69,3.69,0,1,1-3.69-3.688A3.695,3.695,0,0,1,1178.38,102.694Zm14.14,7.89a7.275,7.275,0,1,1-7.28-7.275A7.278,7.278,0,0,1,1192.52,110.584Zm3.38-9.631a2.97,2.97,0,1,1-2.97-2.971A2.971,2.971,0,0,1,1195.9,100.953Zm-68.77,107.922a11.325,11.325,0,1,1-11.32-11.318A11.32,11.32,0,0,1,1127.13,208.875Zm-25.24.409a5.045,5.045,0,1,1-5.04-5.045A5.045,5.045,0,0,1,1101.89,209.284Zm3.55,8.182a3.545,3.545,0,1,1-3.55-3.546A3.548,3.548,0,0,1,1105.44,217.466Zm-11.73-.818a4.64,4.64,0,1,1-4.64-4.637A4.64,4.64,0,0,1,1093.71,216.648Zm42.57,0.052a4.4,4.4,0,1,1-4.4-4.4A4.4,4.4,0,0,1,1136.28,216.7Zm2.48-9.58a2.705,2.705,0,1,1-2.7-2.705A2.7,2.7,0,0,1,1138.76,207.12Zm15.11,6.2a6.88,6.88,0,1,1-6.88-6.875A6.877,6.877,0,0,1,1153.87,213.319Zm92.53-7.369a13.43,13.43,0,1,1-13.43-13.428A13.427,13.427,0,0,1,1246.4,205.95Zm2.76-39.739a4.955,4.955,0,1,1-4.96-4.953A4.956,4.956,0,0,1,1249.16,166.211Zm-0.77,14.861a9.03,9.03,0,1,1-9.03-9.026A9.033,9.033,0,0,1,1248.39,181.072Zm-30.17,35.666a5.175,5.175,0,1,1-5.18-5.174A5.178,5.178,0,0,1,1218.22,216.738Zm-9.47-8.256a5.065,5.065,0,1,1-5.07-5.063A5.067,5.067,0,0,1,1208.75,208.482Zm-11.01,8.036a5.4,5.4,0,1,1-5.4-5.394A5.4,5.4,0,0,1,1197.74,216.518Zm-10.79-7.156a5.835,5.835,0,1,1-5.84-5.833A5.834,5.834,0,0,1,1186.95,209.362Zm-14.21,3.963a7.6,7.6,0,1,1-7.59-7.594A7.593,7.593,0,0,1,1172.74,213.325Zm-43.04-88.5a6.25,6.25,0,1,1-6.25-6.251A6.251,6.251,0,0,1,1129.7,124.821Zm-14.98-5.99a3.255,3.255,0,1,1-3.26-3.256A3.258,3.258,0,0,1,1114.72,118.831Zm6.38,19.662a6.12,6.12,0,1,1-6.12-6.12A6.12,6.12,0,0,1,1121.1,138.493Zm8.34,1.823a3,3,0,1,1-3-3A3,3,0,0,1,1129.44,140.316Zm-3.78,10.157a4.82,4.82,0,1,1-4.82-4.818A4.82,4.82,0,0,1,1125.66,150.473Zm-8.72,8.855a4.56,4.56,0,1,1-4.56-4.557A4.565,4.565,0,0,1,1116.94,159.328Zm12.5,5.209a5.34,5.34,0,1,1-5.34-5.339A5.339,5.339,0,0,1,1129.44,164.537Zm-6.51,12.11a6.645,6.645,0,1,1-6.65-6.641A6.647,6.647,0,0,1,1122.93,176.647Zm4.17,13.673a5.475,5.475,0,1,1-5.48-5.469A5.473,5.473,0,0,1,1127.1,190.32ZM1021.57,14.343a10.52,10.52,0,1,1-10.52-10.52A10.52,10.52,0,0,1,1021.57,14.343Zm-52.2-1.238a9.079,9.079,0,1,1-9.079-9.076A9.077,9.077,0,0,1,969.371,13.105Zm26.618,5.982A11.143,11.143,0,1,1,984.847,7.948,11.141,11.141,0,0,1,995.989,19.087Zm1.023,18.474a5.736,5.736,0,1,1-5.735-5.733A5.735,5.735,0,0,1,997.012,37.561ZM984.3,44.225a4.03,4.03,0,1,1-4.03-4.029A4.029,4.029,0,0,1,984.3,44.225Zm12.711,9.918a6.821,6.821,0,1,1-6.82-6.818A6.819,6.819,0,0,1,997.012,54.144ZM986.936,66.851a4.03,4.03,0,1,1-4.03-4.029A4.029,4.029,0,0,1,986.936,66.851Zm8.526,4.8a2.635,2.635,0,1,1-2.635-2.635A2.635,2.635,0,0,1,995.462,71.656Zm0.62,29.754a11.161,11.161,0,1,1-11.161-11.156A11.159,11.159,0,0,1,996.082,101.41Zm-3.255-19.836a6.356,6.356,0,1,1-6.356-6.353A6.355,6.355,0,0,1,992.827,81.574Zm2.977,36.445a3.78,3.78,0,1,1-3.78-3.779A3.779,3.779,0,0,1,995.8,118.019Zm-11.445,1.365a3.36,3.36,0,1,1-3.36-3.359A3.359,3.359,0,0,1,984.359,119.384Zm6.3,8.818a4.2,4.2,0,1,1-4.2-4.2A4.2,4.2,0,0,1,990.659,128.2Zm6.09,2.624a2.31,2.31,0,1,1-2.31-2.31A2.31,2.31,0,0,1,996.749,130.826Zm-8.61,8.923a5.985,5.985,0,1,1-5.985-5.984A5.984,5.984,0,0,1,988.139,139.749Zm8.925-.1a3.15,3.15,0,1,1-3.15-3.149A3.149,3.149,0,0,1,997.064,139.644Zm-3.15,66.763a7.14,7.14,0,1,1-7.14-7.138A7.139,7.139,0,0,1,993.914,206.407Zm6.826,9.972a4.306,4.306,0,1,1-4.306-4.3A4.305,4.305,0,0,1,1000.74,216.379Zm3.88-8.923a3.778,3.778,0,1,1-3.78-3.779A3.778,3.778,0,0,1,1004.62,207.456Zm18.31,7.05a9,9,0,1,1-8.99-8.994A8.989,8.989,0,0,1,1022.93,214.506Zm-43.756.829a4.929,4.929,0,1,1-4.929-4.927A4.928,4.928,0,0,1,979.174,215.335Zm-6.134-8.87a3.834,3.834,0,1,1-3.833-3.832A3.833,3.833,0,0,1,973.04,206.465Zm-7.777,6.571a7.011,7.011,0,1,1-7.01-7.009A7.01,7.01,0,0,1,965.263,213.036Zm21.908-22.668a5.477,5.477,0,1,1-5.477-5.476A5.476,5.476,0,0,1,987.171,190.368Zm8.215,4.818A3.286,3.286,0,1,1,992.1,191.9,3.286,3.286,0,0,1,995.386,195.186Zm0.438-12.7a4.272,4.272,0,1,1-4.272-4.271A4.271,4.271,0,0,1,995.824,182.483Zm-7.777-10.951a5.915,5.915,0,1,1-5.915-5.913A5.914,5.914,0,0,1,988.047,171.532Zm7.887-.657a3.067,3.067,0,1,1-3.067-3.066A3.067,3.067,0,0,1,995.934,170.875Zm0.907-18.908a5.35,5.35,0,1,1-5.35-5.348A5.348,5.348,0,0,1,996.841,151.967Zm-12.414,1.439a4.046,4.046,0,1,1-4.046-4.045A4.045,4.045,0,0,1,984.427,153.406Zm5.9,8.091a3.43,3.43,0,1,1-3.429-3.428A3.429,3.429,0,0,1,990.326,161.5Zm-17.7-51.489a7.3,7.3,0,1,1-7.3-7.3A7.3,7.3,0,0,1,972.622,110.008Zm-14.937-7.1a4.978,4.978,0,1,1-4.978-4.977A4.977,4.977,0,0,1,957.685,102.908Zm-70.7-77.848a8.5,8.5,0,1,1-8.5-8.495A8.5,8.5,0,0,1,886.986,25.06Zm9.427-12.344a4.249,4.249,0,1,1-4.249-4.247A4.249,4.249,0,0,1,896.413,12.715Zm-0.532,9.69a2.257,2.257,0,1,1-2.257-2.256A2.256,2.256,0,0,1,895.881,22.4Zm16.331-7.3a6.24,6.24,0,1,1-6.24-6.238A6.239,6.239,0,0,1,912.212,15.1ZM876.5,11.123a4.647,4.647,0,1,1-4.647-4.645A4.646,4.646,0,0,1,876.5,11.123Zm-11.551,8.495a5.842,5.842,0,1,1-5.842-5.84A5.841,5.841,0,0,1,864.946,19.617Zm-11.285-9.424a5.046,5.046,0,1,1-5.045-5.044A5.045,5.045,0,0,1,853.661,10.194ZM874.9,38.6a3.983,3.983,0,1,1-3.983-3.982A3.982,3.982,0,0,1,874.9,38.6ZM883,50.146a5.577,5.577,0,1,1-5.576-5.575A5.576,5.576,0,0,1,883,50.146Zm3.452,11.017A3.452,3.452,0,1,1,883,57.711,3.452,3.452,0,0,1,886.455,61.162Zm0.479-21.67a3.99,3.99,0,1,1-3.99-3.989A3.989,3.989,0,0,1,886.934,39.492ZM876.875,64.175a6.235,6.235,0,1,1-6.234-6.233A6.233,6.233,0,0,1,876.875,64.175Zm10.84,37.232a5.787,5.787,0,1,1-5.786-5.784A5.786,5.786,0,0,1,887.715,101.407ZM877.04,117.563a5.786,5.786,0,1,1-5.786-5.784A5.784,5.784,0,0,1,877.04,117.563Zm10.176-2a3.891,3.891,0,1,1-3.891-3.889A3.891,3.891,0,0,1,887.216,115.568Zm-12.969-13.962a5.687,5.687,0,1,1-5.686-5.684A5.686,5.686,0,0,1,874.247,101.606Zm12.47-26.228a4.888,4.888,0,1,1-4.888-4.887A4.887,4.887,0,0,1,886.717,75.378Zm-11.7,5.434A5.223,5.223,0,1,1,869.8,75.59,5.222,5.222,0,0,1,875.021,80.811Zm12.405,7.963a4.57,4.57,0,1,1-4.57-4.569A4.57,4.57,0,0,1,887.426,88.775Zm-10.968,2.481a3.526,3.526,0,1,1-3.526-3.525A3.526,3.526,0,0,1,876.458,91.255Zm12.666,112.4a8.1,8.1,0,1,1-8.1-8.094A8.095,8.095,0,0,1,889.124,203.657Zm11.1,8.877a5.485,5.485,0,1,1-5.484-5.482A5.483,5.483,0,0,1,900.223,212.534Zm10.185-2.872a4.048,4.048,0,1,1-4.048-4.047A4.047,4.047,0,0,1,910.408,209.662Zm5.354,8.094a4.179,4.179,0,1,1-4.179-4.177A4.178,4.178,0,0,1,915.762,217.756Zm-31.992.261a4.048,4.048,0,1,1-4.048-4.047A4.047,4.047,0,0,1,883.77,218.017Zm-11.883-7.963a6.007,6.007,0,1,1-6.006-6A6,6,0,0,1,871.887,210.054Zm-14.363,4.177a7.182,7.182,0,1,1-7.182-7.18A7.18,7.18,0,0,1,857.524,214.231ZM905.59,107.769a8.206,8.206,0,1,1-8.206-8.2A8.2,8.2,0,0,1,905.59,107.769Zm44.174,5.195a4.377,4.377,0,1,1-4.376-4.375A4.376,4.376,0,0,1,949.764,112.964Zm-5.881-10.528a3.966,3.966,0,1,1-3.966-3.965A3.965,3.965,0,0,1,943.883,102.436Zm-22.7,4.1a5.881,5.881,0,1,1-5.881-5.879A5.88,5.88,0,0,1,921.181,106.538ZM932.1,101.7a3.014,3.014,0,1,1-3.014-3.013A3.013,3.013,0,0,1,932.1,101.7Zm4.239,9.981a5.275,5.275,0,1,1-5.275-5.273A5.274,5.274,0,0,1,936.34,111.677ZM885.9,128.88a5.076,5.076,0,1,1-5.076-5.074A5.074,5.074,0,0,1,885.9,128.88Zm-13.024,2.107a3.735,3.735,0,1,1-3.735-3.734A3.734,3.734,0,0,1,872.872,130.987Zm13.215,16.275a11.109,11.109,0,1,1-11.108-11.1A11.107,11.107,0,0,1,886.087,147.262Zm-0.766,19.34a4.884,4.884,0,1,1-4.884-4.883A4.883,4.883,0,0,1,885.321,166.6Zm-12.066-3.16A3.256,3.256,0,1,1,870,160.187,3.256,3.256,0,0,1,873.255,163.442Zm0.766,31.69a3.639,3.639,0,1,1-3.639-3.637A3.638,3.638,0,0,1,874.021,195.132Zm12.545-8.233a5.65,5.65,0,1,1-5.65-5.648A5.649,5.649,0,0,1,886.566,186.9Zm-1.34-10.436a3.161,3.161,0,1,1-3.161-3.159A3.16,3.16,0,0,1,885.226,176.463Zm-9.1-1.244a4.789,4.789,0,1,1-4.788-4.788A4.788,4.788,0,0,1,876.128,175.219Zm-2.586,10.052a3.256,3.256,0,1,1-3.256-3.255A3.255,3.255,0,0,1,873.542,185.271ZM1516.08,12.9a8.85,8.85,0,1,1-8.85-8.845A8.853,8.853,0,0,1,1516.08,12.9Zm-73.45-1.833a6.51,6.51,0,1,1-6.51-6.509A6.513,6.513,0,0,1,1442.63,11.066Zm54.46,8.162a6.715,6.715,0,1,1-6.72-6.716A6.719,6.719,0,0,1,1497.09,19.229Zm-14.78-8.369a6.1,6.1,0,1,1-6.1-6.1A6.1,6.1,0,0,1,1482.31,10.86Zm-3.1,12.811a5.165,5.165,0,1,1-5.17-5.166A5.165,5.165,0,0,1,1479.21,23.671Zm-13.43-.31a4.445,4.445,0,1,1-4.45-4.443A4.445,4.445,0,0,1,1465.78,23.361Zm1.86-10.332A4.03,4.03,0,1,1,1463.61,9,4.033,4.033,0,0,1,1467.64,13.029Zm-10.54.31a6.515,6.515,0,1,1-6.51-6.509A6.513,6.513,0,0,1,1457.1,13.339Zm19.22,25.417a9.61,9.61,0,1,1-9.61-9.608A9.607,9.607,0,0,1,1476.32,38.756ZM1344.79,14.245a7.415,7.415,0,1,1-7.41-7.411A7.412,7.412,0,0,1,1344.79,14.245Zm124.77,181.533a7,7,0,1,1-7-6.993A7,7,0,0,1,1469.56,195.777Zm6.36,16.213a8.35,8.35,0,1,1-8.35-8.344A8.348,8.348,0,0,1,1475.92,211.99Zm-17.41-6.2a3.26,3.26,0,1,1-3.26-3.258A3.26,3.26,0,0,1,1458.51,205.791Zm18.66-23.388a5.535,5.535,0,1,1-5.54-5.531A5.536,5.536,0,0,1,1477.17,182.4Zm-8.58-9.542a4.565,4.565,0,1,1-4.56-4.563A4.561,4.561,0,0,1,1468.59,172.861Zm8.99-10.786a5.945,5.945,0,1,1-5.95-5.946A5.945,5.945,0,0,1,1477.58,162.075Zm-12.17-8.3a3.6,3.6,0,1,1-3.6-3.595A3.6,3.6,0,0,1,1465.41,153.778Zm11.79-10.609a6.755,6.755,0,1,1-6.75-6.753A6.75,6.75,0,0,1,1477.2,143.169Zm-6.75-16a6.13,6.13,0,1,1-6.13-6.13A6.133,6.133,0,0,1,1470.45,127.168Zm6.44,4.571a2.5,2.5,0,1,1-2.49-2.493A2.489,2.489,0,0,1,1476.89,131.739Zm-0.1-74.914a5.615,5.615,0,1,1-5.61-5.61A5.609,5.609,0,0,1,1476.79,56.825Zm-12.89-4.364a2.39,2.39,0,1,1-2.39-2.39A2.39,2.39,0,0,1,1463.9,52.461Zm14.86,54.03A10.5,10.5,0,1,1,1468.27,96,10.494,10.494,0,0,1,1478.76,106.491ZM1477,121.037a3.225,3.225,0,1,1-3.23-3.22A3.228,3.228,0,0,1,1477,121.037Zm0.41-36.782a6.34,6.34,0,1,1-6.34-6.337A6.34,6.34,0,0,1,1477.41,84.255Zm-12.47,7.585a2.6,2.6,0,1,1-2.6-2.6A2.6,2.6,0,0,1,1464.94,91.84Zm7.28-22.132a6.755,6.755,0,1,1-6.76-6.753A6.759,6.759,0,0,1,1472.22,69.709ZM1369.66,211.093a10.28,10.28,0,1,1-10.28-10.275A10.276,10.276,0,0,1,1369.66,211.093Zm-22.51,2.935a6.69,6.69,0,1,1-6.69-6.686A6.691,6.691,0,0,1,1347.15,214.028Zm-8.32-15.33a8.32,8.32,0,1,1-8.32-8.318A8.322,8.322,0,0,1,1338.83,198.7Zm-7.67,15.167a5.22,5.22,0,1,1-5.22-5.219A5.221,5.221,0,0,1,1331.16,213.865Zm-11.25-7.176a6.04,6.04,0,1,1-6.04-6.034A6.041,6.041,0,0,1,1319.91,206.689Zm-11.59,7.176a7.5,7.5,0,1,1-7.5-7.5A7.5,7.5,0,0,1,1308.32,213.865Zm29.53-31.477a3.425,3.425,0,1,1-3.43-3.424A3.424,3.424,0,0,1,1337.85,182.388Zm-7.83-7.991a5.385,5.385,0,1,1-5.38-5.382A5.381,5.381,0,0,1,1330.02,174.4Zm-1.47,11.742a4.565,4.565,0,1,1-4.57-4.566A4.565,4.565,0,0,1,1328.55,186.139Zm9.3-59.2a8.97,8.97,0,1,1-8.97-8.968A8.972,8.972,0,0,1,1337.85,126.936Zm0.22,14.691a4.21,4.21,0,1,1-4.21-4.213A4.208,4.208,0,0,1,1338.07,141.627Zm0,24.329a3.805,3.805,0,1,1-3.8-3.8A3.8,3.8,0,0,1,1338.07,165.956Zm-5.57-10.33a5.575,5.575,0,1,1-5.57-5.571A5.568,5.568,0,0,1,1332.5,155.626Zm-5.03-14.271a3.805,3.805,0,1,1-3.8-3.8A3.8,3.8,0,0,1,1327.47,141.355Zm11.83,10.33a2.99,2.99,0,1,1-2.99-2.99A2.99,2.99,0,0,1,1339.3,151.685Zm-13.73,12.64a3.13,3.13,0,1,1-3.13-3.126A3.127,3.127,0,0,1,1325.57,164.325ZM1306.93,13.2a5.28,5.28,0,1,1-5.28-5.279A5.283,5.283,0,0,1,1306.93,13.2ZM1324,21.734a5.505,5.505,0,1,1-5.5-5.5A5.5,5.5,0,0,1,1324,21.734Zm-7.07-10.109a4.27,4.27,0,1,1-4.27-4.268A4.274,4.274,0,0,1,1316.93,11.625Zm11.34-.112a4.49,4.49,0,1,1-4.49-4.493A4.491,4.491,0,0,1,1328.27,11.513Zm6.86,14.826a4.61,4.61,0,1,1-4.61-4.605A4.6,4.6,0,0,1,1335.13,26.339Zm2.13,80.309a6.065,6.065,0,1,1-6.06-6.065A6.06,6.06,0,0,1,1337.26,106.648Zm-11.23,7.413a3.035,3.035,0,1,1-3.04-3.033A3.036,3.036,0,0,1,1326.03,114.061Zm11.68-70.986a6.63,6.63,0,1,1-6.63-6.627A6.629,6.629,0,0,1,1337.71,43.075Zm-0.34,22.913a5.39,5.39,0,1,1-5.39-5.391A5.389,5.389,0,0,1,1337.37,65.988Zm0.23,22.464a7.975,7.975,0,1,1-7.98-7.975A7.976,7.976,0,0,1,1337.6,88.452Zm-7.37-33.721a4.68,4.68,0,1,1-4.68-4.68A4.677,4.677,0,0,1,1330.23,54.731Zm8.43,0.17a2.81,2.81,0,1,1-2.81-2.808A2.81,2.81,0,0,1,1338.66,54.9Zm1.36,21.188A4.085,4.085,0,1,1,1335.94,72,4.084,4.084,0,0,1,1340.02,76.089Zm-11.49-2.553a4.255,4.255,0,1,1-4.25-4.255A4.25,4.25,0,0,1,1328.53,73.536ZM1327,32.521a3.575,3.575,0,1,1-3.58-3.574A3.575,3.575,0,0,1,1327,32.521Zm249.41-17.061a9.26,9.26,0,1,1-9.26-9.259A9.262,9.262,0,0,1,1576.41,15.461Zm25.13,10.2a11.525,11.525,0,1,1-11.52-11.525A11.524,11.524,0,0,1,1601.54,25.665Zm16.83-13.416a7.94,7.94,0,1,1-7.94-7.936A7.941,7.941,0,0,1,1618.37,12.248Zm14.36,4.724a5.67,5.67,0,1,1-5.67-5.669A5.67,5.67,0,0,1,1632.73,16.972Zm9.07,77.852a12.285,12.285,0,1,1-12.28-12.283A12.283,12.283,0,0,1,1641.8,94.824ZM1617.04,109a9.45,9.45,0,1,1-9.45-9.448A9.449,9.449,0,0,1,1617.04,109Zm-12.09,19.841a12.665,12.665,0,1,1-12.67-12.658A12.663,12.663,0,0,1,1604.95,128.837Zm2.08,76.152a9.075,9.075,0,1,1-9.08-9.069A9.077,9.077,0,0,1,1607.03,204.989Zm15.87,9.259a7,7,0,1,1-6.99-6.992A6.991,6.991,0,0,1,1622.9,214.248Zm9.64-4.724a4.535,4.535,0,1,1-4.54-4.535A4.535,4.535,0,0,1,1632.54,209.524Zm-49.89,2.834a7.185,7.185,0,1,1-7.19-7.18A7.186,7.186,0,0,1,1582.65,212.358Zm9.63,4.535a3.965,3.965,0,1,1-3.96-3.968A3.963,3.963,0,0,1,1592.28,216.893Zm-27.78-3.779a4.725,4.725,0,1,1-4.72-4.724A4.72,4.72,0,0,1,1564.5,213.114Zm25.71-18.707a4.73,4.73,0,1,1-4.73-4.724A4.728,4.728,0,0,1,1590.21,194.407Zm15.49-12.093a9.07,9.07,0,1,1-9.07-9.069A9.069,9.069,0,0,1,1605.7,182.314Zm-15.31-13.039a6.235,6.235,0,1,1-6.23-6.235A6.233,6.233,0,0,1,1590.39,169.275Zm12.29-15.873a8.7,8.7,0,1,1-8.7-8.691A8.692,8.692,0,0,1,1602.68,153.4Zm123.91,58.05a8.18,8.18,0,1,1-8.18-8.178A8.184,8.184,0,0,1,1726.59,211.452Zm-18.98,8.7a5.4,5.4,0,1,1-5.39-5.394A5.39,5.39,0,0,1,1707.61,220.152Zm-2.26-13.572a4.175,4.175,0,1,1-4.18-4.176A4.178,4.178,0,0,1,1705.35,206.58Zm7.49-11.484a5.57,5.57,0,1,1-5.57-5.568A5.573,5.573,0,0,1,1712.84,195.1Zm-15.32,4.35a4.18,4.18,0,1,1-4.18-4.176A4.177,4.177,0,0,1,1697.52,199.446Zm7.31-16.008a7.66,7.66,0,1,1-7.66-7.655A7.658,7.658,0,0,1,1704.83,183.438Zm-16.54,6.09a4.175,4.175,0,1,1-4.18-4.176A4.178,4.178,0,0,1,1688.29,189.528Zm5.92-21.4a4.175,4.175,0,1,1-4.18-4.177A4.177,4.177,0,0,1,1694.21,168.127Zm-10.44-2.437a3.485,3.485,0,1,1-3.48-3.48A3.482,3.482,0,0,1,1683.77,165.69Zm3.83,11.136a5.57,5.57,0,1,1-5.57-5.568A5.572,5.572,0,0,1,1687.6,176.826Zm-12.72-16.982a5.885,5.885,0,1,1-5.88-5.883A5.88,5.88,0,0,1,1674.88,159.844Zm0.98,11.112a3.485,3.485,0,1,1-3.49-3.486A3.487,3.487,0,0,1,1675.86,170.956Zm9.59-17.214a4.685,4.685,0,1,1-4.68-4.684A4.685,4.685,0,0,1,1685.45,153.742Zm-43.25-38.68a5.5,5.5,0,1,1-5.49-5.493A5.493,5.493,0,0,1,1642.2,115.062Zm7.36-8.349a4.505,4.505,0,1,1-4.5-4.5A4.5,4.5,0,0,1,1649.56,106.713Zm-1.21,19.225a4.505,4.505,0,1,1-4.5-4.5A4.5,4.5,0,0,1,1648.35,125.938Zm3.62,10.34a3.715,3.715,0,1,1-3.71-3.714A3.711,3.711,0,0,1,1651.97,136.278Zm6.03-4.787a2.725,2.725,0,1,1-2.72-2.723A2.724,2.724,0,0,1,1658,131.491Zm5.37-6.355a3.22,3.22,0,1,1-3.22-3.219A3.225,3.225,0,0,1,1663.37,125.136Zm-8.09-2.394a3.055,3.055,0,1,1-3.06-3.053A3.057,3.057,0,0,1,1655.28,122.742Zm-4.46-6.768a3.305,3.305,0,1,1-3.31-3.3A3.305,3.305,0,0,1,1650.82,115.974Zm7.34-.578a2.97,2.97,0,1,1-2.97-2.971A2.971,2.971,0,0,1,1658.16,115.4Zm13.87,19.974a5.86,5.86,0,1,1-5.86-5.859A5.857,5.857,0,0,1,1672.03,135.37Zm-11.22,7.181a4.875,4.875,0,1,1-4.87-4.869A4.869,4.869,0,0,1,1660.81,142.551Zm13.04,5.7a4.3,4.3,0,1,1-4.29-4.291A4.291,4.291,0,0,1,1673.85,148.246Zm-9.74,3.962a3.22,3.22,0,1,1-3.22-3.219A3.218,3.218,0,0,1,1664.11,152.208Zm12.3-11.308a2.4,2.4,0,1,1-2.39-2.393A2.392,2.392,0,0,1,1676.41,140.9Zm-80.39-32.859a5.085,5.085,0,1,1-5.09-5.087A5.089,5.089,0,0,1,1596.02,108.041Zm5.19-13.266a6.085,6.085,0,1,1-6.08-6.085A6.081,6.081,0,0,1,1601.21,94.775Zm-13.76.9a3.5,3.5,0,1,1-3.5-3.491A3.5,3.5,0,0,1,1587.45,95.673Zm-0.3-10.773a3.9,3.9,0,1,1-3.89-3.89A3.9,3.9,0,0,1,1587.15,84.9Zm7.38-.1a2.9,2.9,0,1,1-2.89-2.892A2.9,2.9,0,0,1,1594.53,84.8Zm7.68-2.394a3.49,3.49,0,1,1-3.49-3.491A3.489,3.489,0,0,1,1602.21,82.406Zm-1.69-72.121a3.4,3.4,0,1,1-3.4-3.392A3.394,3.394,0,0,1,1600.52,10.285Zm-14.57.4a4.19,4.19,0,1,1-4.19-4.19A4.192,4.192,0,0,1,1585.95,10.684Zm6.89,65.859a3.465,3.465,0,1,1-3.47-3.462A3.464,3.464,0,0,1,1592.84,76.543Zm6.02-9.068a4.62,4.62,0,1,1-4.62-4.616A4.619,4.619,0,0,1,1598.86,67.475Zm3.63-9.15a3.715,3.715,0,1,1-3.72-3.71A3.718,3.718,0,0,1,1602.49,58.325Zm-2.23,16.652a2.225,2.225,0,1,1-2.23-2.226A2.229,2.229,0,0,1,1600.26,74.977Zm-12.78-4.863a3.465,3.465,0,1,1-3.47-3.462A3.464,3.464,0,0,1,1587.48,70.113ZM1585,77.2a2.555,2.555,0,1,1-2.55-2.556A2.552,2.552,0,0,1,1585,77.2Zm8.11-20.594a6.26,6.26,0,1,1-6.26-6.256A6.262,6.262,0,0,1,1593.11,56.609Zm7.8-7.99a3.965,3.965,0,1,1-3.96-3.964A3.96,3.96,0,0,1,1600.91,48.619Zm0.75-8.795a3.41,3.41,0,1,1-3.41-3.407A3.41,3.41,0,0,1,1601.66,39.824Zm-8.62,3.407a4.83,4.83,0,1,1-4.83-4.831A4.829,4.829,0,0,1,1593.04,43.23Zm-6.98,70.606a2.925,2.925,0,1,1-2.93-2.921A2.924,2.924,0,0,1,1586.06,113.836Zm0.37-10.98a2.6,2.6,0,1,1-2.59-2.6A2.593,2.593,0,0,1,1586.43,102.856Zm115.39-76.772a11.3,11.3,0,1,1-11.3-11.3A11.3,11.3,0,0,1,1701.82,26.084Zm-17.37,18.34a5.71,5.71,0,1,1-5.71-5.71A5.712,5.712,0,0,1,1684.45,44.424Zm-5.71-10.349a2.855,2.855,0,1,1-2.86-2.855A2.857,2.857,0,0,1,1678.74,34.075Zm-7.5,16.177a6.9,6.9,0,1,1-6.9-6.9A6.9,6.9,0,0,1,1671.24,50.252Zm1.31-10.111a2.975,2.975,0,1,1-2.97-2.974A2.972,2.972,0,0,1,1672.55,40.142Zm-25.94,36.637a6.305,6.305,0,1,1-6.31-6.3A6.3,6.3,0,0,1,1646.61,76.779Zm10.94-6.465a4.65,4.65,0,1,1-4.65-4.648A4.648,4.648,0,0,1,1657.55,70.314Zm1.79-10.993a5.1,5.1,0,1,1-5.1-5.095A5.1,5.1,0,0,1,1659.34,59.321Zm2.59,6.346a1.875,1.875,0,1,1-1.88-1.877A1.878,1.878,0,0,1,1661.93,65.666Zm5.81-4.737a2.59,2.59,0,1,1-2.59-2.592A2.591,2.591,0,0,1,1667.74,60.929Zm-20.02,5.184a2.775,2.775,0,1,1-2.77-2.771A2.77,2.77,0,0,1,1647.72,66.113ZM1664.08,10.7a5.1,5.1,0,1,1-5.1-5.094A5.1,5.1,0,0,1,1664.08,10.7Zm9.74,8.759a5.275,5.275,0,1,1-5.27-5.273A5.272,5.272,0,0,1,1673.82,19.459Zm8.5-9.385a5.275,5.275,0,1,1-5.28-5.273A5.28,5.28,0,0,1,1682.32,10.074Zm-11.89-1.609a2.6,2.6,0,1,1-2.6-2.592A2.6,2.6,0,0,1,1670.43,8.465Zm22.79-.089a3.845,3.845,0,1,1-3.84-3.843A3.842,3.842,0,0,1,1693.22,8.376Zm36.84,5.809a9.3,9.3,0,1,1-9.3-9.3A9.3,9.3,0,0,1,1730.06,14.185Zm-22.17-2.77a5.815,5.815,0,1,1-5.82-5.81A5.817,5.817,0,0,1,1707.89,11.415Zm4.29,12.245a3.935,3.935,0,1,1-3.94-3.933A3.934,3.934,0,0,1,1712.18,23.659Zm-368.96,3.074a5.927,5.927,0,1,1-5.93,5.927A5.932,5.932,0,0,1,1343.22,26.734Zm5.59-9.282a4.473,4.473,0,1,1-4.47,4.473A4.479,4.479,0,0,1,1348.81,17.452Zm-2.23,25.05a6.6,6.6,0,1,1-6.6,6.6A6.6,6.6,0,0,1,1346.58,42.5Zm10.29-10.624a5.927,5.927,0,1,1-5.93,5.927A5.932,5.932,0,0,1,1356.87,31.878ZM1450,174.5a9.427,9.427,0,1,1-9.43,9.427A9.427,9.427,0,0,1,1450,174.5Zm-0.44-13.641a4.991,4.991,0,1,1-4.99,4.99A4.994,4.994,0,0,1,1449.56,160.856Zm-15.09,3.882a6.654,6.654,0,1,1-6.66,6.654A6.656,6.656,0,0,1,1434.47,164.738Zm4.55-15.084a5.324,5.324,0,1,1-5.33,5.324A5.321,5.321,0,0,1,1439.02,149.654Zm-17.53-19.185a11.423,11.423,0,1,1-11.43,11.422A11.428,11.428,0,0,1,1421.49,130.469Zm4.44,26.173a4.325,4.325,0,1,1-4.33,4.325A4.328,4.328,0,0,1,1425.93,156.642Zm-5.99-36.488a3.66,3.66,0,1,1-3.66,3.66A3.661,3.661,0,0,1,1419.94,120.154Zm-15.31-8.429a5.878,5.878,0,1,1-5.88,5.878A5.878,5.878,0,0,1,1404.63,111.725Zm-17.97-9.537a6.765,6.765,0,1,1-6.77,6.765A6.765,6.765,0,0,1,1386.66,102.188Zm18.3,24.4a5.1,5.1,0,1,1-5.1,5.1A5.1,5.1,0,0,1,1404.96,126.586Zm-1.77-30.165a6.433,6.433,0,1,1-6.44,6.432A6.432,6.432,0,0,1,1403.19,96.421Zm-42.38-44.694a4.325,4.325,0,1,1-4.33,4.325A4.329,4.329,0,0,1,1360.81,51.726Zm6.77-7.874a2.551,2.551,0,1,1-2.56,2.551A2.549,2.549,0,0,1,1367.58,43.852Zm23.85,39.038a6.987,6.987,0,1,1-6.99,6.987A6.989,6.989,0,0,1,1391.43,82.89ZM1375.79,90.1a4.547,4.547,0,1,1-4.55,4.547A4.542,4.542,0,0,1,1375.79,90.1Zm0.99-17.19a6.876,6.876,0,1,1-6.87,6.876A6.878,6.878,0,0,1,1376.78,72.909Zm1.56-13.087a4.991,4.991,0,1,1-5,4.991A4.994,4.994,0,0,1,1378.34,59.822Zm-15.64,4.214a7.1,7.1,0,1,1-7.1,7.1A7.1,7.1,0,0,1,1362.7,64.037Zm-9.88-4.325a2.773,2.773,0,1,1-2.77,2.773A2.78,2.78,0,0,1,1352.82,59.711Zm19.75-8.54a3.66,3.66,0,1,1-3.66,3.66A3.661,3.661,0,0,1,1372.57,51.172Zm15.33,22.306a2.86,2.86,0,1,1-2.86,2.859A2.859,2.859,0,0,1,1387.9,73.478Zm6.05,41.575a3.19,3.19,0,1,1-3.19,3.189A3.191,3.191,0,0,1,1393.95,115.053Z"/>
</svg>
