<?xml version="1.0" encoding="utf-8"?>
<!-- Generator: Adobe Illustrator 21.0.2, SVG Export Plug-In . SVG Version: 6.00 Build 0)  -->
<svg version="1.1" id="Группа_1" xmlns="http://www.w3.org/2000/svg" xmlns:xlink="http://www.w3.org/1999/xlink" x="0px"
	 y="0px" viewBox="0 0 1702 290" style="enable-background:new 0 0 1702 290;" xml:space="preserve">
<style type="text/css">
	.st0{fill:#FFFFFF;}
	.st1{enable-background:new    ;}
	.st2{fill:#D22C10;}
	.st3{fill:none;enable-background:new    ;}
	.st4{fill:#D22B10;}
	.st5{font-family:'TrebuchetMS';}
	.st6{font-size:7.3539px;}
	.st7{fill:#D4D4D4;}
	.st8{font-size:24.5247px;}
</style>
<path id="Фигура_6" class="st0" d="M191,52h162v162H191V52z M209.3,70.4h125.3v125.3H209.3V70.4z"/>
<g class="st1">
	<path class="st0" d="M413.5,187.8l6.9-16.7c7.4,5.2,14.6,7.7,21.7,7.7c10.9,0,16.4-3.8,16.4-11.5c0-3.6-1.3-7-3.9-10.2
		c-2.6-3.2-7.9-6.9-15.9-10.9c-8.1-4-13.5-7.4-16.3-10c-2.8-2.6-4.9-5.7-6.4-9.3s-2.3-7.5-2.3-11.9c0-8.1,3-14.9,8.9-20.2
		c5.9-5.4,13.6-8,22.9-8c12.1,0,21,2.3,26.7,6.8l-5.7,16.1c-6.5-4.7-13.4-7-20.7-7c-4.3,0-7.6,1.1-10,3.4c-2.4,2.3-3.5,5.2-3.5,8.9
		c0,6,6.7,12.3,20,18.8c7,3.4,12.1,6.6,15.2,9.5c3.1,2.9,5.5,6.3,7.1,10.1c1.6,3.8,2.4,8.1,2.4,12.9c0,8.5-3.4,15.5-10.1,21
		c-6.7,5.5-15.7,8.2-27,8.2C430.2,195.4,421.4,192.9,413.5,187.8z"/>
	<path class="st0" d="M535.2,186c-1.6,2.7-4.5,4.9-8.5,6.6c-4,1.7-8.3,2.5-12.6,2.5c-8.3,0-14.8-2.1-19.5-6.2
		c-4.7-4.1-7.1-10-7.1-17.6c0-8.9,3.3-15.8,10-20.9c6.7-5,16.1-7.5,28.4-7.5c2.1,0,4.6,0.4,7.5,1.1c0-9-5.7-13.5-17.1-13.5
		c-6.7,0-12.4,1.1-16.9,3.4l-3.9-13.9c6.2-3,13.5-4.4,22-4.4c11.7,0,20.3,2.7,25.7,8c5.4,5.3,8.2,15.4,8.2,30.3v16.4
		c0,10.2,2.1,16.6,6.2,19.3c-1.5,2.6-3.1,4.2-4.9,4.8c-1.8,0.6-3.9,0.9-6.2,0.9c-2.6,0-4.9-1-7-2.9
		C537.3,190.3,535.9,188.2,535.2,186z M533.4,157.5c-3.1-0.6-5.4-0.9-6.9-0.9c-14.1,0-21.2,4.6-21.2,13.9c0,6.9,4,10.3,12,10.3
		c10.7,0,16.1-5.4,16.1-16.1V157.5z"/>
	<path class="st0" d="M620,193.6v-44.4c0-6.5-1.3-11.3-3.8-14.3c-2.5-3-6.6-4.5-12.3-4.5c-2.6,0-5.4,0.7-8.4,2.2
		c-3,1.5-5.3,3.3-7,5.5v55.5h-17.9v-76.7h12.9l3.3,7.2c4.9-5.7,12.1-8.6,21.6-8.6c9.1,0,16.3,2.7,21.6,8.2
		c5.3,5.5,7.9,13.1,7.9,22.9v47.1H620z"/>
	<path class="st0" d="M653.3,187.8l6.9-16.7c7.4,5.2,14.6,7.7,21.7,7.7c10.9,0,16.4-3.8,16.4-11.5c0-3.6-1.3-7-3.9-10.2
		c-2.6-3.2-7.9-6.9-15.9-10.9c-8.1-4-13.5-7.4-16.3-10c-2.8-2.6-4.9-5.7-6.4-9.3s-2.3-7.5-2.3-11.9c0-8.1,3-14.9,8.9-20.2
		c5.9-5.4,13.6-8,22.9-8c12.1,0,21,2.3,26.7,6.8l-5.7,16.1c-6.5-4.7-13.4-7-20.7-7c-4.3,0-7.6,1.1-10,3.4c-2.4,2.3-3.5,5.2-3.5,8.9
		c0,6,6.7,12.3,20,18.8c7,3.4,12.1,6.6,15.2,9.5c3.1,2.9,5.5,6.3,7.1,10.1c1.6,3.8,2.4,8.1,2.4,12.9c0,8.5-3.4,15.5-10.1,21
		c-6.7,5.5-15.7,8.2-27,8.2C670,195.4,661.2,192.9,653.3,187.8z"/>
	<path class="st0" d="M775,186c-1.6,2.7-4.5,4.9-8.5,6.6c-4,1.7-8.3,2.5-12.6,2.5c-8.3,0-14.8-2.1-19.5-6.2
		c-4.7-4.1-7.1-10-7.1-17.6c0-8.9,3.3-15.8,10-20.9c6.7-5,16.1-7.5,28.4-7.5c2.1,0,4.6,0.4,7.5,1.1c0-9-5.7-13.5-17.1-13.5
		c-6.7,0-12.4,1.1-16.9,3.4l-3.9-13.9c6.2-3,13.5-4.4,22-4.4c11.7,0,20.3,2.7,25.7,8c5.4,5.3,8.2,15.4,8.2,30.3v16.4
		c0,10.2,2.1,16.6,6.2,19.3c-1.5,2.6-3.1,4.2-4.9,4.8c-1.8,0.6-3.9,0.9-6.2,0.9c-2.6,0-4.9-1-7-2.9C777.1,190.3,775.7,188.2,775,186
		z M773.3,157.5c-3.1-0.6-5.4-0.9-6.9-0.9c-14.1,0-21.2,4.6-21.2,13.9c0,6.9,4,10.3,12,10.3c10.7,0,16.1-5.4,16.1-16.1V157.5z"/>
	<path class="st0" d="M859.8,193.6v-44.4c0-6.5-1.3-11.3-3.8-14.3c-2.5-3-6.6-4.5-12.3-4.5c-2.6,0-5.4,0.7-8.4,2.2
		c-3,1.5-5.3,3.3-7,5.5v55.5h-17.9v-76.7h12.9l3.3,7.2c4.9-5.7,12.1-8.6,21.6-8.6c9.1,0,16.3,2.7,21.6,8.2
		c5.3,5.5,7.9,13.1,7.9,22.9v47.1H859.8z"/>
</g>
<path id="Artworks" class="st0" d="M1075.6,119.2c-3.2-1.9-7.9-2.8-14.1-2.8c-8.3,0-15,2.8-20,8.5v-7h-17.9v76.7h17.9v-43.7
	c-0.1-5,1.6-10,4.8-13.8c3.2-3.8,6.9-5.7,11.1-5.7c3.7,0,7.4,1.1,10.5,3.2L1075.6,119.2z M1089,171.1c0,8,2.1,14.1,6.2,18.5
	c4.1,4.3,10,6.5,17.6,6.5c7.7,0,13.6-0.7,17.8-2.1v-16.5c-3.6,2.3-7.8,3.5-12,3.5c-4.3,0-7.3-1.1-9-3.4c-1.7-2.3-2.6-6.1-2.6-11.6
	v-33.6h21.1v-14.4H1107V95.7l-17.9,6.6v15.6h-8.9v14.4h8.9V171.1L1089,171.1z M1248.9,117.9h-17.6l-16.6,46.1l-19.4-46.1h-6.4
	l-18.8,45.8l-15.4-45.8h-18.8l28.9,78.2h6.6l21-47.2l21.1,47.2h6.5L1248.9,117.9z M1259.1,185.1c6.5,7.3,15.5,10.9,27.2,10.9
	c11.4,0,20.4-3.6,27-10.8s9.9-16.9,9.9-29.2c0-12.3-3.2-22-9.7-29c-6.5-7.1-15.5-10.6-27.2-10.6c-11.1,0-20,3.7-26.8,11
	c-6.8,7.4-10.1,16.9-10.1,28.6C1249.4,168.2,1252.6,177.8,1259.1,185.1z M1272.9,137.7c3.1-4.3,8.1-6.8,13.3-6.6
	c12.1,0,18.2,8.3,18.2,25c0,8.1-1.6,14.4-4.9,18.8c-3.1,4.3-8,6.8-13.3,6.6c-12.2,0-18.3-8.5-18.3-25.4
	C1268,148.2,1269.6,142.1,1272.9,137.7L1272.9,137.7z M1384.2,119.2c-3.2-1.9-7.9-2.8-14-2.8c-8.3,0-15,2.8-20,8.5v-7h-17.9v76.7
	h17.9v-43.7c-0.1-5,1.6-10,4.8-13.8c3.2-3.8,6.9-5.7,11.1-5.7c3.7,0,7.4,1.1,10.5,3.2L1384.2,119.2z M1461.3,194.6L1430,147
	l25.9-29.1h-21.6l-25.6,29.5V85l-17.9,4.3v105.3h17.9V169l8.6-9.1l22.6,34.8L1461.3,194.6L1461.3,194.6z M1478.4,194.8
	c4,0.9,8.2,1.4,12.3,1.3c9.1,0,16.2-2,21.5-6.1c5.3-4.1,7.9-9.7,7.9-16.8c0.1-4.9-1.4-9.8-4.4-13.7c-3-3.8-7.8-7-14.6-9.6
	s-11.1-4.8-13.2-6.3c-2-1.6-3.1-3.3-3.1-5.3c0-5,3.1-7.5,9.4-7.5c7,0,12.4,1.7,16.3,5l5.2-13.9c-7-3.6-14.7-5.4-22.5-5.4
	c-7.9,0-14.4,1.9-19.4,5.6c-5.1,3.7-7.6,8.9-7.6,15.5c0,9.9,6.6,17.6,19.8,23.1c6.1,2.5,10.2,4.7,12.2,6.6c2.1,1.8,3.2,4.4,3.2,7.2
	c0,5-3.5,7.5-10.5,7.5c-6.6,0-13-2.2-18.1-6.4l-6.4,14.3C1470.3,191.8,1474.3,193.5,1478.4,194.8L1478.4,194.8z"/>
<path id="Фигура_7" class="st2" d="M1013.6,194.6L971.4,88.2h-8.2l-41.8,106.4h20.7l7.3-21.3h36l7.7,21.3L1013.6,194.6
	L1013.6,194.6z M979.9,159.1h-25.2l12.6-38.8L979.9,159.1z"/>
<path id="Фигура_1" class="st0" d="M275,103.8c2.1-0.6,4.3-0.9,6.5-1c2.2,0,4.3,0.2,6.5,0.6c0,0,2.4-13.3,4.7-20
	s5.2-14.3,9.3-17.6s7.8-4.9,12.8,1.2s3.4,8.9,1.4,17.1s-9.6,16-12.2,19.3s-2.5,3.2-2.5,3.2s4.8,6,6.4,11.8
	c2.1,7.6,3.2,12.4,3.5,20.5c0.4,6.7-0.3,13.5-2,20c-1,4.1-2.7,8-4.9,11.6c3.7,4.2,6.8,8.8,9.3,13.7c4.8,9,4.2,20,4.1,20.3
	s-59.7,0-59.7,0c-0.2-2-0.2-4.1-0.1-6.1c0.3-1.2-18.1-3.3-20.1-3.7c-3.4-0.7-6.5-2.6-8.8-5.3c-2.4-2.4-2.4-6.3-0.1-8.7
	c0.4-0.4,0.9-0.8,1.4-1c3-1.5,6.2-1.4,7.7-0.7l1.5,0.7c0,0-2.3-1.9-1.4-1.6c1.9,0.9,3.6,2.2,5.1,3.7c2.2,2.2,5.2,3.4,8.3,3.2
	c3.9-0.2,5.1-0.9,6.4-2.8c1.8-2.6,3.3-5.4,4.5-8.3c0.5-1.2,1.2-2.4,2-3.5c0,0-10.2-10.9-10.8-26.8s-0.2-19.1,1.1-23.7s6.5-11,6.5-11
	s-3.4-6-8.4-14.3s-12-19.9-8.1-26.4s10.3-11.2,19.7-0.1c9.3,11.1,7.9,22.4,8.8,27.5S275,103.8,275,103.8z"/>
<path id="Фигура_2" class="st0" d="M235.4,144.2c0,0-1.6,34.7-2.4,39.1s-1.5,10.3-1.7,12s0.9,4.1,2,4s2.9-2,3.2-4.5
	s4.4-50.5,4.4-50.5L235.4,144.2z"/>
<path id="Фигура_4" class="st2" d="M234.6,144.1c0,1.5,0.1,3,0.4,4.4c0.3,0.8,5.6,2.1,6.2-0.7c0.2-1,0.4-2,0.7-3L234.6,144.1z
	"/>
<path id="Фигура_5" class="st2" d="M220.1,127.1c0.3,0.8-0.8,2.2,5.8,3.4s26.6,2.4,29.6,2.4s3.7-2.6,3.3-3s-0.1-0.9-2.2-1.1
	s-33.7-2.3-34.5-2.4S219.8,126.3,220.1,127.1z"/>
<path id="Фигура_3" class="st2" d="M221.9,129.6c0,0-1.7,13.9,10.5,16.3s20.5,1.3,22.9-6.8s1.8-6.5,1.8-6.5L221.9,129.6z"/>
<image style="overflow:visible;" width="63" height="87" xlink:href="E71F8497C078718.png"  transform="matrix(1.0317 0 0 1.0115 314 162)">
</image>
<path class="st3" d="z"/>
<image style="overflow:visible;" width="74" height="93" xlink:href="E71F8497C078703.png"  transform="matrix(1.0135 0 0 1.0108 292 166)">
</image>
<path class="st3" d="z"/>
<image style="overflow:visible;" width="79" height="97" xlink:href="E71F8497C078704.png"  transform="matrix(1.0127 0 0 1.0103 278 171)">
</image>
<path class="st3" d="z"/>
<image style="overflow:visible;" width="58" height="51" xlink:href="E71F8497C078705.png"  transform="matrix(1.0345 0 0 1.0588 324 204)">
</image>
<path class="st3" d="z"/>
<image style="overflow:visible;" width="46" height="41" xlink:href="E71F8497C078706.png"  transform="matrix(1.0217 0 0 1 331 210)">
</image>
<path class="st3" d="z"/>
<image style="overflow:visible;" width="47" height="41" xlink:href="E71F8497C078707.png"  transform="matrix(1 0 0 1 333 207)">
</image>
<path class="st3" d="z"/>
<image style="overflow:visible;" width="58" height="50" xlink:href="E71F8497C07870B.png"  transform="matrix(1.0517 0 0 1.08 350 196)">
</image>
<path class="st3" d="z"/>
<image style="overflow:visible;" width="46" height="40" xlink:href="E71F8497C07870D.png"  transform="matrix(1.0435 0 0 1.05 356 201)">
</image>
<path class="st3" d="z"/>
<image style="overflow:visible;" width="48" height="41" xlink:href="E71F8497C07870E.png"  transform="matrix(1 0 0 1 358 199)">
</image>
<path class="st3" d="z"/>
<image style="overflow:visible;" width="54" height="55" xlink:href="1678E29EED1685D1.png"  transform="matrix(1 0 0 1 355 193)">
</image>
<path class="st3" d="z"/>
<image style="overflow:visible;" width="80" height="39" xlink:href="1678E29EED1685E3.png"  transform="matrix(1 0 0 1.0513 333 210)">
</image>
<path class="st3" d="z"/>
<image style="overflow:visible;" width="80" height="39" xlink:href="1678E29EED1685E4.png"  transform="matrix(1.0125 0 0 1.0513 332 209)">
</image>
<path class="st3" d="z"/>
<g id="Группа_2">
	<image style="overflow:visible;" width="37" height="36" xlink:href="1678E29EED1685E1.png"  transform="matrix(1 0 0 1 336 209)">
	</image>
	<path class="st3" d="z"/>
	<image style="overflow:visible;" width="37" height="36" xlink:href="1678E29EED1685E2.png"  transform="matrix(1 0 0 1 336 206)">
	</image>
	<path class="st3" d="z"/>
	<image style="overflow:visible;" width="37" height="35" xlink:href="1678E29EED1685E0.png"  transform="matrix(1 0 0 1 336 209)">
	</image>
	<path class="st3" d="z"/>
	<image style="overflow:visible;" width="37" height="35" xlink:href="1678E29EED1685CC.png"  transform="matrix(1 0 0 1 336 208)">
	</image>
	<path class="st3" d="z"/>
	<image style="overflow:visible;" width="37" height="34" xlink:href="1678E29EED1685CD.png"  transform="matrix(1 0 0 1 336 206)">
	</image>
	<path class="st3" d="z"/>
	<image style="overflow:visible;" width="37" height="35" xlink:href="1678E29EED1685CE.png"  transform="matrix(1 0 0 1 336 206)">
	</image>
	<path class="st3" d="z"/>
</g>
<g id="Группа_2_копия">
	<image style="overflow:visible;" width="36" height="37" xlink:href="1678E29EED1685CF.png"  transform="matrix(1 0 0 1 371 195)">
	</image>
	<path class="st3" d="z"/>
	<image style="overflow:visible;" width="37" height="36" xlink:href="1678E29EED1685F9.png"  transform="matrix(1 0 0 1 370 193)">
	</image>
	<path class="st3" d="z"/>
	<image style="overflow:visible;" width="37" height="34" xlink:href="1678E29EED1685B0.png"  transform="matrix(1 0 0 1 370 196)">
	</image>
	<path class="st3" d="z"/>
	<image style="overflow:visible;" width="37" height="34" xlink:href="1678E29EED1685B1.png"  transform="matrix(1 0 0 1 370 195)">
	</image>
	<path class="st3" d="z"/>
	<image style="overflow:visible;" width="37" height="34" xlink:href="1678E29EED1685B2.png"  transform="matrix(1 0 0 1 370 193)">
	</image>
	<path class="st3" d="z"/>
	<image style="overflow:visible;" width="37" height="34" xlink:href="1678E29EED1685B3.png"  transform="matrix(1 0 0 1 370 194)">
	</image>
	<path class="st3" d="z"/>
</g>
<image style="overflow:visible;" width="48" height="42" xlink:href="1678E29EED1685B4.png"  transform="matrix(1 0 0 1 357 198)">
</image>
<path class="st3" d="z"/>
<g id="Группа_2_копия_2">
	<image style="overflow:visible;" width="37" height="36" xlink:href="1678E29EED1685B5.png"  transform="matrix(1 0 0 1 361 195)">
	</image>
	<path class="st3" d="z"/>
	<image style="overflow:visible;" width="36" height="36" xlink:href="1678E29EED1685B6.png"  transform="matrix(1 0 0 1 361 193)">
	</image>
	<path class="st3" d="z"/>
	<image style="overflow:visible;" width="36" height="36" xlink:href="1678E29EED1685B7.png"  transform="matrix(1 0 0 1 361 194)">
	</image>
	<path class="st3" d="z"/>
	<image style="overflow:visible;" width="36" height="35" xlink:href="1678E29EED1685B8.png"  transform="matrix(1 0 0 1 361 194)">
	</image>
	<path class="st3" d="z"/>
	<image style="overflow:visible;" width="36" height="35" xlink:href="1678E29EED168638.png"  transform="matrix(1 0 0 1 361 193)">
	</image>
	<path class="st3" d="z"/>
	<image style="overflow:visible;" width="36" height="36" xlink:href="1678E29EED168639.png"  transform="matrix(1 0 0 1 361 193)">
	</image>
	<path class="st3" d="z"/>
</g>
<g id="condoms">
	
		<image style="overflow:visible;" width="63" height="44" xlink:href="1678E29EED168626.png"  transform="matrix(1.0317 0 0 1.0227 270 216)">
	</image>
	<path class="st3" d="z"/>
	<image style="overflow:visible;" width="8" height="10" xlink:href="1678E29EED168627.png"  transform="matrix(1 0 0 1 302 208)">
	</image>
	<path class="st3" d="z"/>
	<image style="overflow:visible;" width="37" height="39" xlink:href="1678E29EED168628.png"  transform="matrix(1 0 0 1 279 217)">
	</image>
	<path class="st3" d="z"/>
	<image style="overflow:visible;" width="24" height="25" xlink:href="1678E29EED168629.png"  transform="matrix(1 0 0 1 286 220)">
	</image>
	<path class="st3" d="z"/>
	<image style="overflow:visible;" width="62" height="56" xlink:href="1678E29EED16862E.png"  transform="matrix(1 0 0 1 276 208)">
	</image>
	<path class="st3" d="z"/>
	
		<image style="overflow:visible;" width="58" height="53" xlink:href="1678E29EED16862F.png"  transform="matrix(1.069 0 0 1.0566 276 208)">
	</image>
	<path class="st3" d="z"/>
	<image style="overflow:visible;" width="53" height="44" xlink:href="1678E29EED168624.png"  transform="matrix(1 0 0 1 285 212)">
	</image>
	<path class="st3" d="z"/>
	<text id="condom" transform="matrix(0.9997 -2.246624e-02 2.246624e-02 0.9997 284.3293 237.9704)" class="st4 st5 st6">condom</text>
	<image style="overflow:visible;" width="62" height="56" xlink:href="1678E29EED168625.png"  transform="matrix(1 0 0 1 280 201)">
	</image>
	<path class="st3" d="z"/>
	<image style="overflow:visible;" width="24" height="25" xlink:href="1678E29EED168615.png"  transform="matrix(1 0 0 1 299 211)">
	</image>
	<path class="st3" d="z"/>
	<image style="overflow:visible;" width="25" height="26" xlink:href="1678E29EED168614.png"  transform="matrix(1 0 0 1 299 210)">
	</image>
	<path class="st3" d="z"/>
	<image style="overflow:visible;" width="27" height="11" xlink:href="1678E29EED168609.png"  transform="matrix(1 0 0 1 300 223)">
	</image>
	<path class="st3" d="z"/>
</g>
<text transform="matrix(1 0 0 1 412.8633 232.542)" class="st7 st5 st8">Brand new SSA. Now </text>
<text transform="matrix(1 0 0 1 644.9258 232.542)" class="st7 st5 st8" style="text-decoration: line-through;">with some rocket fuel</text>
<text transform="matrix(1 0 0 1 885.6572 232.542)" class="st7 st5 st8"> with blackjack and hookers. In fact, forget the artworks!</text>
</svg>
